<svg width="600" height="266" viewBox="0 0 600 266" fill="none" xmlns="http://www.w3.org/2000/svg">
<path d="M300.054 226.929C248.605 226.929 206.888 185.232 206.888 133.763C206.888 82.2943 248.605 40.5977 300.054 40.5977C351.503 40.5977 393.219 82.3142 393.219 133.763C393.219 185.212 351.503 226.929 300.054 226.929Z" fill="#FEFEFE"/>
<path fill-rule="evenodd" clip-rule="evenodd" d="M391.408 133.764C391.408 184.217 350.507 225.118 300.054 225.118C249.6 225.118 208.699 184.217 208.699 133.764C208.699 83.3097 249.6 42.4093 300.054 42.4093C350.507 42.4093 391.408 83.3097 391.408 133.764ZM300.054 34.9656C354.627 34.9656 398.852 79.1898 398.852 133.764C398.852 188.337 354.607 232.561 300.054 232.561C245.48 232.561 201.256 188.317 201.256 133.764C201.256 79.1898 245.48 34.9656 300.054 34.9656Z" fill="#F2F1F0"/>
<path d="M264.855 117.686H262.102V110.282C262.102 109.482 262.137 108.599 262.206 107.633H262.137C261.993 108.392 261.863 108.938 261.748 109.272L258.849 117.686H256.571L253.619 109.358C253.539 109.134 253.409 108.559 253.231 107.633H253.153C253.228 108.852 253.266 109.922 253.266 110.843V117.686H250.754V105.311H254.836L257.365 112.646C257.566 113.233 257.713 113.823 257.805 114.415H257.856C258.012 113.731 258.176 113.135 258.348 112.629L260.877 105.311H264.855V117.686Z" fill="#474747"/>
<path d="M270.456 117.686H267.668V105.311H270.456V117.686Z" fill="#474747"/>
<path d="M282.149 117.246C281.245 117.683 280.066 117.901 278.61 117.901C276.712 117.901 275.219 117.343 274.132 116.227C273.044 115.111 272.501 113.624 272.501 111.766C272.501 109.787 273.111 108.182 274.33 106.951C275.555 105.72 277.143 105.104 279.094 105.104C280.302 105.104 281.32 105.256 282.149 105.561V108.245C281.32 107.75 280.377 107.503 279.318 107.503C278.156 107.503 277.218 107.868 276.505 108.599C275.791 109.33 275.435 110.319 275.435 111.567C275.435 112.764 275.771 113.719 276.444 114.433C277.117 115.14 278.024 115.494 279.163 115.494C280.25 115.494 281.245 115.229 282.149 114.7V117.246Z" fill="#474747"/>
<path d="M294.687 117.686H291.486L289.561 114.501C289.417 114.26 289.279 114.044 289.147 113.854C289.015 113.664 288.879 113.503 288.741 113.371C288.609 113.233 288.468 113.129 288.319 113.06C288.175 112.986 288.016 112.948 287.844 112.948H287.093V117.686H284.306V105.311H288.724C291.727 105.311 293.229 106.433 293.229 108.677C293.229 109.108 293.163 109.508 293.03 109.876C292.898 110.239 292.711 110.566 292.469 110.86C292.228 111.153 291.934 111.406 291.589 111.619C291.25 111.832 290.87 111.999 290.45 112.12V112.154C290.634 112.212 290.812 112.307 290.985 112.439C291.158 112.566 291.325 112.715 291.486 112.888C291.647 113.06 291.799 113.247 291.943 113.449C292.092 113.644 292.228 113.837 292.349 114.027L294.687 117.686ZM287.093 107.399V110.843H288.301C288.9 110.843 289.38 110.67 289.742 110.325C290.111 109.974 290.295 109.54 290.295 109.022C290.295 107.94 289.648 107.399 288.353 107.399H287.093Z" fill="#474747"/>
<path d="M300.909 117.901C299.137 117.901 297.693 117.326 296.577 116.176C295.461 115.019 294.903 113.515 294.903 111.662C294.903 109.706 295.47 108.124 296.603 106.916C297.736 105.708 299.238 105.104 301.107 105.104C302.874 105.104 304.3 105.682 305.388 106.839C306.481 107.995 307.027 109.519 307.027 111.412C307.027 113.357 306.461 114.924 305.327 116.115C304.2 117.306 302.727 117.901 300.909 117.901ZM301.03 107.503C300.052 107.503 299.275 107.871 298.7 108.608C298.125 109.338 297.837 110.307 297.837 111.516C297.837 112.741 298.125 113.71 298.7 114.424C299.275 115.137 300.029 115.494 300.961 115.494C301.921 115.494 302.684 115.149 303.248 114.458C303.811 113.762 304.093 112.798 304.093 111.567C304.093 110.285 303.82 109.286 303.273 108.573C302.727 107.86 301.979 107.503 301.03 107.503Z" fill="#474747"/>
<path d="M308.52 117.211V114.45C309.021 114.87 309.564 115.186 310.151 115.399C310.738 115.606 311.331 115.71 311.929 115.71C312.28 115.71 312.585 115.678 312.844 115.615C313.108 115.551 313.327 115.465 313.499 115.356C313.678 115.241 313.81 115.108 313.896 114.959C313.983 114.803 314.026 114.637 314.026 114.458C314.026 114.217 313.957 114.001 313.819 113.811C313.681 113.621 313.491 113.446 313.249 113.285C313.013 113.124 312.731 112.968 312.404 112.819C312.076 112.669 311.722 112.517 311.342 112.361C310.376 111.959 309.654 111.467 309.176 110.886C308.704 110.305 308.468 109.603 308.468 108.78C308.468 108.136 308.598 107.584 308.857 107.123C309.116 106.657 309.466 106.275 309.909 105.976C310.358 105.676 310.876 105.458 311.463 105.32C312.05 105.176 312.671 105.104 313.327 105.104C313.971 105.104 314.541 105.144 315.035 105.225C315.536 105.299 315.996 105.417 316.416 105.578V108.159C316.209 108.015 315.982 107.888 315.734 107.779C315.493 107.67 315.242 107.581 314.984 107.512C314.725 107.437 314.466 107.382 314.207 107.348C313.954 107.313 313.712 107.296 313.482 107.296C313.166 107.296 312.878 107.328 312.619 107.391C312.36 107.448 312.142 107.532 311.963 107.641C311.785 107.75 311.647 107.883 311.549 108.038C311.451 108.188 311.402 108.357 311.402 108.547C311.402 108.754 311.457 108.941 311.566 109.108C311.676 109.269 311.831 109.425 312.032 109.574C312.234 109.718 312.478 109.862 312.766 110.005C313.054 110.144 313.379 110.287 313.741 110.437C314.236 110.644 314.679 110.865 315.07 111.101C315.467 111.332 315.806 111.593 316.088 111.887C316.37 112.18 316.586 112.517 316.735 112.896C316.885 113.27 316.96 113.708 316.96 114.208C316.96 114.898 316.828 115.479 316.563 115.951C316.304 116.417 315.95 116.797 315.501 117.09C315.053 117.378 314.529 117.585 313.931 117.712C313.338 117.838 312.711 117.901 312.05 117.901C311.371 117.901 310.724 117.844 310.108 117.729C309.498 117.614 308.969 117.441 308.52 117.211Z" fill="#474747"/>
<path d="M324.226 117.901C322.454 117.901 321.01 117.326 319.894 116.176C318.778 115.019 318.22 113.515 318.22 111.662C318.22 109.706 318.786 108.124 319.92 106.916C321.053 105.708 322.555 105.104 324.424 105.104C326.19 105.104 327.617 105.682 328.705 106.839C329.798 107.995 330.344 109.519 330.344 111.412C330.344 113.357 329.778 114.924 328.644 116.115C327.517 117.306 326.044 117.901 324.226 117.901ZM324.347 107.503C323.369 107.503 322.592 107.871 322.017 108.608C321.441 109.338 321.154 110.307 321.154 111.516C321.154 112.741 321.441 113.71 322.017 114.424C322.592 115.137 323.346 115.494 324.278 115.494C325.238 115.494 326.001 115.149 326.564 114.458C327.128 113.762 327.41 112.798 327.41 111.567C327.41 110.285 327.137 109.286 326.59 108.573C326.044 107.86 325.296 107.503 324.347 107.503Z" fill="#474747"/>
<path d="M339.56 107.581H335.194V110.618H339.207V112.879H335.194V117.686H332.407V105.311H339.56V107.581Z" fill="#474747"/>
<path d="M350.52 107.581H346.99V117.686H344.194V107.581H340.682V105.311H350.52V107.581Z" fill="#474747"/>
<path d="M264.26 135.598H261.222L260.342 132.845H255.941L255.069 135.598H252.049L256.553 123.224H259.858L264.26 135.598ZM259.703 130.706L258.374 126.546C258.276 126.235 258.207 125.864 258.167 125.433H258.098C258.069 125.795 257.997 126.155 257.882 126.512L256.536 130.706H259.703Z" fill="#474747"/>
<path d="M265.804 135.598V123.224H270.188C274.583 123.224 276.781 125.234 276.781 129.256C276.781 131.183 276.18 132.722 274.977 133.872C273.781 135.023 272.184 135.598 270.188 135.598H265.804ZM268.591 125.493V133.337H269.972C271.18 133.337 272.127 132.975 272.811 132.25C273.502 131.525 273.847 130.539 273.847 129.29C273.847 128.111 273.505 127.185 272.82 126.512C272.141 125.833 271.186 125.493 269.955 125.493H268.591Z" fill="#474747"/>
<path d="M289.138 123.224L284.875 135.598H281.717L277.506 123.224H280.509L283.089 131.836C283.227 132.302 283.311 132.713 283.339 133.07H283.391C283.431 132.684 283.521 132.262 283.659 131.801L286.222 123.224H289.138Z" fill="#474747"/>
<path d="M300.59 135.598H297.552L296.672 132.845H292.271L291.399 135.598H288.379L292.884 123.224H296.189L300.59 135.598ZM296.033 130.706L294.704 126.546C294.607 126.235 294.537 125.864 294.497 125.433H294.428C294.4 125.795 294.328 126.155 294.212 126.512L292.866 130.706H296.033Z" fill="#474747"/>
<path d="M313.266 135.598H310.453L305.353 127.823C305.054 127.369 304.847 127.026 304.732 126.796H304.697C304.743 127.233 304.766 127.901 304.766 128.798V135.598H302.134V123.224H305.137L310.048 130.757C310.272 131.097 310.479 131.433 310.669 131.767H310.703C310.657 131.479 310.634 130.913 310.634 130.067V123.224H313.266V135.598Z" fill="#474747"/>
<path d="M324.968 135.158C324.065 135.595 322.885 135.814 321.43 135.814C319.531 135.814 318.038 135.256 316.951 134.14C315.864 133.024 315.32 131.537 315.32 129.679C315.32 127.7 315.93 126.094 317.15 124.863C318.375 123.632 319.963 123.017 321.913 123.017C323.121 123.017 324.139 123.169 324.968 123.474V126.158C324.139 125.663 323.196 125.415 322.137 125.415C320.975 125.415 320.038 125.781 319.324 126.512C318.611 127.242 318.254 128.232 318.254 129.48C318.254 130.677 318.591 131.632 319.264 132.345C319.937 133.053 320.843 133.407 321.982 133.407C323.07 133.407 324.065 133.142 324.968 132.613V135.158Z" fill="#474747"/>
<path d="M334.547 135.598H327.125V123.224H334.262V125.493H329.913V128.246H333.96V130.507H329.913V133.337H334.547V135.598Z" fill="#474747"/>
<path d="M336.531 135.598V123.224H340.915C345.311 123.224 347.508 125.234 347.508 129.256C347.508 131.183 346.907 132.722 345.705 133.872C344.508 135.023 342.912 135.598 340.915 135.598H336.531ZM339.319 125.493V133.337H340.7C341.908 133.337 342.854 132.975 343.539 132.25C344.229 131.525 344.574 130.539 344.574 129.29C344.574 128.111 344.232 127.185 343.547 126.512C342.869 125.833 341.913 125.493 340.682 125.493H339.319Z" fill="#474747"/>
<path d="M262.844 153.511H255.423V141.136H262.559V143.406H258.21V146.159H262.258V148.42H258.21V151.25H262.844V153.511Z" fill="#474747"/>
<path d="M264.829 153.511V141.136H269.213C273.608 141.136 275.806 143.147 275.806 147.168C275.806 149.096 275.205 150.634 274.002 151.785C272.806 152.936 271.209 153.511 269.213 153.511H264.829ZM267.616 143.406V151.25H268.997C270.205 151.25 271.152 150.888 271.836 150.163C272.527 149.438 272.872 148.451 272.872 147.203C272.872 146.023 272.529 145.097 271.845 144.424C271.166 143.745 270.211 143.406 268.98 143.406H267.616Z" fill="#474747"/>
<path d="M287.947 148.152C287.947 151.868 286.216 153.727 282.753 153.727C279.393 153.727 277.713 151.912 277.713 148.282V141.136H280.509V148.316C280.509 150.318 281.291 151.319 282.856 151.319C284.392 151.319 285.16 150.353 285.16 148.42V141.136H287.947V148.152Z" fill="#474747"/>
<path d="M299.52 153.071C298.616 153.508 297.437 153.727 295.981 153.727C294.083 153.727 292.59 153.169 291.503 152.053C290.416 150.936 289.872 149.449 289.872 147.591C289.872 145.612 290.482 144.007 291.701 142.776C292.927 141.545 294.515 140.929 296.465 140.929C297.673 140.929 298.691 141.082 299.52 141.387V144.07C298.691 143.575 297.748 143.328 296.689 143.328C295.527 143.328 294.589 143.694 293.876 144.424C293.163 145.155 292.806 146.144 292.806 147.393C292.806 148.589 293.142 149.544 293.816 150.258C294.489 150.965 295.395 151.319 296.534 151.319C297.621 151.319 298.616 151.054 299.52 150.525V153.071Z" fill="#474747"/>
<path d="M312.559 153.511H309.521L308.641 150.758H304.24L303.368 153.511H300.348L304.853 141.136H308.158L312.559 153.511ZM308.002 148.618L306.673 144.459C306.576 144.148 306.507 143.777 306.466 143.345H306.397C306.369 143.708 306.297 144.067 306.182 144.424L304.835 148.618H308.002Z" fill="#474747"/>
<path d="M321.551 143.406H318.021V153.511H315.225V143.406H311.713V141.136H321.551V143.406Z" fill="#474747"/>
<path d="M327.79 153.727C326.018 153.727 324.574 153.151 323.458 152.001C322.342 150.844 321.784 149.34 321.784 147.488C321.784 145.532 322.35 143.949 323.484 142.741C324.617 141.533 326.119 140.929 327.988 140.929C329.755 140.929 331.181 141.507 332.269 142.664C333.362 143.82 333.908 145.344 333.908 147.237C333.908 149.182 333.341 150.749 332.208 151.94C331.081 153.131 329.608 153.727 327.79 153.727ZM327.911 143.328C326.933 143.328 326.156 143.696 325.581 144.433C325.005 145.163 324.718 146.133 324.718 147.341C324.718 148.566 325.005 149.536 325.581 150.249C326.156 150.962 326.91 151.319 327.842 151.319C328.802 151.319 329.565 150.974 330.128 150.284C330.692 149.587 330.974 148.624 330.974 147.393C330.974 146.11 330.701 145.112 330.154 144.398C329.608 143.685 328.86 143.328 327.911 143.328Z" fill="#474747"/>
<path d="M346.352 153.511H343.15L341.226 150.327C341.082 150.085 340.944 149.869 340.812 149.68C340.679 149.49 340.544 149.328 340.406 149.196C340.274 149.058 340.133 148.955 339.983 148.886C339.84 148.811 339.681 148.773 339.509 148.773H338.758V153.511H335.971V141.136H340.389C343.392 141.136 344.893 142.258 344.893 144.502C344.893 144.933 344.827 145.333 344.695 145.701C344.563 146.064 344.376 146.392 344.134 146.685C343.893 146.979 343.599 147.231 343.254 147.444C342.915 147.657 342.535 147.824 342.115 147.945V147.979C342.299 148.037 342.477 148.132 342.65 148.264C342.822 148.391 342.989 148.54 343.15 148.713C343.311 148.886 343.464 149.073 343.608 149.274C343.757 149.47 343.893 149.662 344.013 149.852L346.352 153.511ZM338.758 143.225V146.668H339.966C340.564 146.668 341.045 146.495 341.407 146.15C341.775 145.799 341.959 145.365 341.959 144.847C341.959 143.765 341.312 143.225 340.018 143.225H338.758Z" fill="#474747"/>
<path d="M306.338 169.987C298.322 171.488 296.042 178.989 298.096 181.387C300.239 183.912 305.509 183.24 307.647 179.798C308.505 178.411 308.902 175.837 309.765 174.003C310.966 171.438 314.178 169.639 314.178 169.639C311.212 169.502 309.54 169.365 306.338 169.987Z" fill="#C64DD9"/>
<path d="M308.034 203.953C307.31 204.713 306.71 205.581 306.254 206.527C304.631 203.869 302.822 201.398 301.954 198.515C300.223 192.891 303.356 183.992 303.356 183.992C303.356 183.992 296.124 188.616 295.046 195.593C294.845 197.466 295.03 199.36 295.59 201.158C294.483 201.348 293.357 201.404 292.236 201.325C290.089 201.104 285.975 199.854 285.975 199.854C285.975 199.854 288.427 204.056 297.134 205.899C298.189 208.87 299.287 211.896 299.586 214.725C299.924 217.98 298.409 221.098 296.87 223.383H309.049C309.605 220.683 309.77 217.918 309.539 215.171C309.416 213.874 309.131 212.597 308.691 211.371C309.157 209.41 309.882 206.89 310.726 205.615C312.309 203.212 315.261 200.888 315.261 200.888C315.261 200.888 310.412 201.781 308.034 203.953Z" fill="#873B1C"/>
<path d="M275.336 192.085C276.316 198.949 282.597 201.155 284.71 199.513C286.936 197.792 286.564 193.291 283.73 191.344C282.582 190.56 280.41 190.128 278.885 189.324C276.753 188.206 275.346 185.426 275.346 185.426C275.11 187.927 274.929 189.339 275.336 192.085Z" fill="#FA9525"/>
<path d="M325.008 191.815C324.935 198.748 318.988 201.748 316.673 200.395C314.246 198.973 314.031 194.463 316.6 192.168C317.634 191.241 319.728 190.53 321.14 189.535C323.101 188.152 324.141 185.21 324.141 185.21C324.695 187.662 325.058 189.04 325.008 191.815Z" fill="#47C4FB"/>
<path d="M282.558 208.99C285.775 212.422 290.104 211.167 290.634 209.431C291.188 207.612 289.226 205.274 286.897 205.308C285.956 205.308 284.588 205.935 283.431 206.087C281.818 206.303 279.955 205.313 279.955 205.313C280.642 206.657 281.518 207.896 282.558 208.99Z" fill="#4FAD4E"/>
<path d="M322.042 208.153C319.762 212.252 315.261 212.119 314.32 210.575C313.339 208.947 314.658 206.197 316.928 205.672C317.84 205.451 319.316 205.706 320.473 205.569C322.091 205.383 323.655 203.966 323.655 203.966C323.318 205.431 322.775 206.84 322.042 208.153Z" fill="#4FAD4E"/>
<path d="M313.447 188.442C312.187 192.958 307.779 193.875 306.505 192.59C305.166 191.232 305.813 188.251 307.897 187.197C308.735 186.775 310.226 186.677 311.329 186.275C312.854 185.716 314.045 183.975 314.045 183.975C314.062 185.485 313.86 186.99 313.447 188.442Z" fill="#4FAD4E"/>
<path d="M285.744 183.197C287.004 187.712 291.412 188.629 292.687 187.345C293.962 186.06 293.374 183.005 291.295 181.951C290.456 181.525 288.966 181.427 287.862 181.025C286.338 180.466 285.146 178.725 285.146 178.725C285.129 180.237 285.331 181.743 285.744 183.197Z" fill="#4FAD4E"/>
<path d="M294.735 80.4272H293.437V75.3261C293.437 74.9083 293.463 74.3972 293.514 73.7926H293.493C293.412 74.1369 293.341 74.3843 293.278 74.5346L290.926 80.4272H290.024L287.666 74.5786C287.6 74.4064 287.53 74.1443 287.457 73.7926H287.435C287.464 74.1077 287.479 74.6225 287.479 75.3373V80.4272H286.27V72.5447H288.111L290.183 77.7943C290.341 78.1973 290.444 78.4978 290.491 78.6957H290.519C290.654 78.2817 290.764 77.9738 290.848 77.7722L292.959 72.5447H294.735V80.4272Z" fill="#737373"/>
<path d="M296.787 73.6166C296.578 73.6166 296.398 73.5488 296.248 73.4132C296.102 73.2777 296.028 73.1053 296.028 72.8966C296.028 72.6876 296.102 72.5136 296.248 72.3743C296.398 72.2352 296.578 72.1655 296.787 72.1655C297.003 72.1655 297.186 72.2352 297.337 72.3743C297.487 72.5136 297.562 72.6876 297.562 72.8966C297.562 73.0944 297.487 73.2648 297.337 73.4077C297.186 73.547 297.003 73.6166 296.787 73.6166ZM297.419 80.4272H296.144V74.7985H297.419V80.4272Z" fill="#737373"/>
<path d="M302.725 80.1689C302.275 80.429 301.741 80.5592 301.126 80.5592C300.29 80.5592 299.616 80.299 299.103 79.7786C298.59 79.2545 298.333 78.5766 298.333 77.7447C298.333 76.8176 298.608 76.0736 299.158 75.513C299.711 74.9487 300.45 74.6665 301.373 74.6665C301.886 74.6665 302.339 74.7563 302.731 74.9358V76.1232C302.339 75.83 301.921 75.6833 301.477 75.6833C300.939 75.6833 300.497 75.8666 300.153 76.2331C299.808 76.5959 299.636 77.0724 299.636 77.6623C299.636 78.245 299.797 78.7048 300.12 79.042C300.446 79.3791 300.882 79.5477 301.428 79.5477C301.886 79.5477 302.319 79.3847 302.725 79.0585V80.1689Z" fill="#737373"/>
<path d="M306.866 76.0135C306.712 75.8925 306.491 75.832 306.201 75.832C305.824 75.832 305.508 76.0024 305.256 76.3433C305.003 76.684 304.876 77.1476 304.876 77.7339V80.4274H303.601V74.7986H304.876V75.9584H304.898C305.023 75.5627 305.213 75.2548 305.47 75.0349C305.73 74.8114 306.02 74.6997 306.339 74.6997C306.569 74.6997 306.745 74.7345 306.866 74.8042V76.0135Z" fill="#737373"/>
<path d="M309.77 80.5592C308.902 80.5592 308.207 80.2972 307.687 79.7732C307.17 79.2454 306.912 78.5474 306.912 77.6788C306.912 76.7334 307.181 75.995 307.72 75.4636C308.262 74.9322 308.992 74.6665 309.908 74.6665C310.787 74.6665 311.472 74.9248 311.963 75.4415C312.455 75.9582 312.7 76.6747 312.7 77.5908C312.7 78.4887 312.434 79.2087 311.903 79.7511C311.375 80.2899 310.664 80.5592 309.77 80.5592ZM309.831 75.6833C309.332 75.6833 308.938 75.8575 308.649 76.2056C308.359 76.5537 308.215 77.0338 308.215 77.6458C308.215 78.2359 308.361 78.7012 308.654 79.042C308.948 79.3791 309.34 79.5477 309.831 79.5477C310.333 79.5477 310.718 79.3809 310.985 79.0475C311.256 78.714 311.392 78.2395 311.392 77.6239C311.392 77.0045 311.256 76.5262 310.985 76.1891C310.718 75.8519 310.333 75.6833 309.831 75.6833Z" fill="#737373"/>
<path d="M313.257 80.2513V79.0694C313.733 79.4323 314.259 79.6138 314.835 79.6138C315.604 79.6138 315.989 79.3865 315.989 78.9321C315.989 78.8039 315.956 78.6956 315.89 78.6077C315.824 78.5161 315.734 78.4355 315.621 78.3659C315.511 78.2962 315.379 78.2339 315.225 78.179C315.075 78.124 314.906 78.0617 314.719 77.9921C314.488 77.9005 314.28 77.8034 314.093 77.7007C313.909 77.5982 313.756 77.4828 313.631 77.3544C313.51 77.2226 313.418 77.0742 313.356 76.9092C313.294 76.7444 313.263 76.5519 313.263 76.332C313.263 76.0609 313.327 75.8227 313.455 75.6175C313.583 75.4087 313.756 75.2345 313.972 75.0952C314.188 74.9523 314.433 74.846 314.708 74.7764C314.983 74.7031 315.267 74.6665 315.56 74.6665C316.081 74.6665 316.546 74.7453 316.957 74.9029V76.0187C316.561 75.7476 316.106 75.6119 315.593 75.6119C315.432 75.6119 315.285 75.6284 315.154 75.6614C315.025 75.6945 314.915 75.7403 314.824 75.7988C314.732 75.8575 314.661 75.9289 314.609 76.0133C314.558 76.0939 314.532 76.1837 314.532 76.2826C314.532 76.4034 314.558 76.5061 314.609 76.5905C314.661 76.6747 314.736 76.7497 314.835 76.8158C314.937 76.8781 315.058 76.9366 315.197 76.9918C315.34 77.0429 315.503 77.0998 315.687 77.1621C315.929 77.261 316.145 77.3618 316.335 77.4645C316.53 77.567 316.694 77.6844 316.83 77.8161C316.966 77.9445 317.07 78.0948 317.143 78.2669C317.217 78.4355 317.253 78.6371 317.253 78.8716C317.253 79.1574 317.187 79.4066 317.055 79.6191C316.923 79.8317 316.748 80.0076 316.528 80.147C316.308 80.2861 316.053 80.3888 315.764 80.4547C315.478 80.5243 315.175 80.5592 314.857 80.5592C314.241 80.5592 313.708 80.4565 313.257 80.2513Z" fill="#737373"/>
<path d="M320.57 80.5592C319.701 80.5592 319.007 80.2972 318.486 79.7732C317.97 79.2454 317.711 78.5474 317.711 77.6788C317.711 76.7334 317.981 75.995 318.519 75.4636C319.062 74.9322 319.791 74.6665 320.707 74.6665C321.587 74.6665 322.272 74.9248 322.763 75.4415C323.254 75.9582 323.5 76.6747 323.5 77.5908C323.5 78.4887 323.234 79.2087 322.702 79.7511C322.175 80.2899 321.464 80.5592 320.57 80.5592ZM320.63 75.6833C320.132 75.6833 319.738 75.8575 319.448 76.2056C319.159 76.5537 319.014 77.0338 319.014 77.6458C319.014 78.2359 319.161 78.7012 319.454 79.042C319.747 79.3791 320.139 79.5477 320.63 79.5477C321.132 79.5477 321.517 79.3809 321.785 79.0475C322.056 78.714 322.191 78.2395 322.191 77.6239C322.191 77.0045 322.056 76.5262 321.785 76.1891C321.517 75.8519 321.132 75.6833 320.63 75.6833Z" fill="#737373"/>
<path d="M327.404 73.133C327.232 73.0339 327.036 72.9846 326.816 72.9846C326.197 72.9846 325.887 73.3345 325.887 74.0344V74.7985H327.195V75.7988H325.892V80.4273H324.617V75.7988H323.655V74.7985H324.617V73.886C324.617 73.2923 324.811 72.8251 325.2 72.4844C325.588 72.1399 326.074 71.9675 326.656 71.9675C326.972 71.9675 327.221 72.0024 327.404 72.072V73.133Z" fill="#737373"/>
<path d="M330.885 80.3668C330.636 80.4914 330.308 80.5537 329.901 80.5537C328.809 80.5537 328.263 80.0296 328.263 78.9817V75.7989H327.323V74.7985H328.263V73.4957L329.539 73.1331V74.7985H330.885V75.7989H329.539V78.6133C329.539 78.9469 329.599 79.1849 329.72 79.328C329.841 79.4709 330.043 79.5424 330.325 79.5424C330.541 79.5424 330.728 79.4801 330.885 79.3555V80.3668Z" fill="#737373"/>
<path d="M282.217 69.9614H276.009V76.1691H282.217V69.9614Z" fill="#7FBE00"/>
<path d="M275.431 69.9614H269.223V76.1691H275.431V69.9614Z" fill="#F65212"/>
<path d="M282.217 76.7791H276.009V82.9868H282.217V76.7791Z" fill="#FFBB00"/>
<path d="M275.431 76.7791H269.223V82.9868H275.431V76.7791Z" fill="#00A4F3"/>
<path fill-rule="evenodd" clip-rule="evenodd" d="M385.815 133.763C385.815 181.132 347.423 219.525 300.054 219.525C252.685 219.525 214.292 181.132 214.292 133.763C214.292 86.3942 252.685 48.0015 300.054 48.0015C347.423 48.0015 385.815 86.3942 385.815 133.763ZM300.054 40.5579C351.523 40.5579 393.259 82.2942 393.259 133.763C393.259 185.232 351.523 226.969 300.054 226.969C248.585 226.969 206.848 185.232 206.848 133.763C206.848 82.2942 248.565 40.5579 300.054 40.5579Z" fill="url(#paint0_linear_810_8575)"/>
<defs>
<linearGradient id="paint0_linear_810_8575" x1="300.054" y1="40.5579" x2="300.054" y2="226.969" gradientUnits="userSpaceOnUse">
<stop stop-color="#BDBDBD"/>
<stop offset="0.171875" stop-color="#A2A2A2"/>
<stop offset="0.324602" stop-color="#878787"/>
<stop offset="0.499772" stop-color="#505050"/>
<stop offset="0.723958" stop-color="#484848"/>
<stop offset="0.833333" stop-color="#404040"/>
<stop offset="1" stop-color="#303030"/>
</linearGradient>
</defs>
</svg>
