<svg width="103" height="102" viewBox="0 0 103 102" fill="none" xmlns="http://www.w3.org/2000/svg">
<g clip-path="url(#clip0_1812_347)">
<path d="M51.0893 97.7799C41.8299 97.7799 32.7785 95.0338 25.08 89.8889C17.3814 84.7441 11.3817 77.4316 7.83965 68.8764C4.29759 60.3212 3.37235 50.9078 5.18096 41.8267C6.98956 32.7456 11.4508 24.405 18.0003 17.8597C24.5498 11.3144 32.8933 6.8585 41.9755 5.05572C51.0578 3.25293 60.4706 4.18421 69.0235 7.73175C77.5764 11.2793 84.8851 17.2837 90.025 24.9855C95.1649 32.6873 97.9052 41.7405 97.8993 50.9999C97.8914 63.4095 92.9561 75.3081 84.1784 84.0802C75.4007 92.8523 63.4989 97.7799 51.0893 97.7799Z" fill="#FEFEFE"/>
<path fill-rule="evenodd" clip-rule="evenodd" d="M96.9894 50.9999C96.9894 60.0781 94.2974 68.9523 89.2538 76.5006C84.2103 84.0488 77.0417 89.9319 68.6546 93.406C60.2674 96.88 51.0385 97.789 42.1348 96.0179C33.231 94.2469 25.0524 89.8753 18.6332 83.4561C12.214 77.0369 7.84241 68.8583 6.07135 59.9545C4.30029 51.0508 5.20926 41.8218 8.68332 33.4347C12.1574 25.0476 18.0405 17.879 25.5887 12.8354C33.1369 7.79188 42.0112 5.09989 51.0894 5.09989C63.2628 5.09989 74.9377 9.93577 83.5456 18.5437C92.1535 27.1516 96.9894 38.8265 96.9894 50.9999ZM51.0894 1.35989C60.9094 1.35 70.5117 4.25292 78.6815 9.70142C86.8513 15.1499 93.2216 22.8992 96.9864 31.9688C100.751 41.0385 101.741 51.021 99.8317 60.6535C97.9219 70.286 93.1981 79.1357 86.2579 86.083C79.3176 93.0302 70.4727 97.763 60.8421 99.6824C51.2115 101.602 41.228 100.622 32.1546 96.866C23.0811 93.1104 15.3255 86.7479 9.86873 78.5836C4.412 70.4193 1.4994 60.8199 1.49939 50.9999C1.49674 37.8424 6.71894 25.2223 16.018 15.9138C25.3171 6.60541 37.9319 1.37049 51.0894 1.35989Z" fill="#F2F1F0"/>
<path d="M54.2493 69.1999C50.2493 69.9499 49.0793 73.7199 50.1093 74.9299C51.1393 76.1399 53.8293 75.8599 54.9093 74.1299C55.3393 73.4299 55.5393 72.1299 55.9693 71.2199C56.5061 70.3065 57.2711 69.5484 58.1893 69.0199C56.874 68.8976 55.5481 68.9582 54.2493 69.1999Z" fill="#C64DD9"/>
<path d="M55.0993 86.2598C54.739 86.646 54.439 87.0842 54.2093 87.5598C53.3202 86.3249 52.5942 84.9805 52.0493 83.5598C51.1793 80.7398 52.7493 76.2698 52.7493 76.2698C52.7493 76.2698 49.1193 78.5898 48.5793 82.0898C48.4789 83.0318 48.5708 83.9843 48.8493 84.8898C48.2948 84.9862 47.7304 85.013 47.1693 84.9698C46.104 84.7977 45.0516 84.5538 44.0193 84.2398C44.0193 84.2398 45.2493 86.3498 49.6293 87.2398C50.2043 88.669 50.6168 90.1584 50.8593 91.6798C50.9207 93.2432 50.4403 94.7798 49.4993 96.0298H55.6193C55.9021 94.6725 55.9863 93.2813 55.8693 91.8998C55.8059 91.2477 55.6615 90.6061 55.4393 89.9898C55.6328 88.9836 55.9696 88.0104 56.4393 87.0998C57.0861 86.2085 57.8496 85.408 58.7093 84.7198C57.4073 84.9613 56.1747 85.4871 55.0993 86.2598Z" fill="#873B1C"/>
<path d="M38.6694 80.3C39.1694 83.75 42.3194 84.86 43.3794 84.03C44.4394 83.2 44.3194 80.91 42.8894 79.93C42.3194 79.54 41.2194 79.32 40.4594 78.93C39.7064 78.4461 39.0928 77.7739 38.6794 76.98C38.5177 78.0805 38.5143 79.1985 38.6694 80.3Z" fill="#FA9525"/>
<path d="M63.6293 80.1699C63.6293 83.6499 60.6293 85.1699 59.4393 84.4799C58.2493 83.7899 58.1193 81.4799 59.4393 80.3399C59.9593 79.8799 61.0093 79.5199 61.7193 79.0199C62.4015 78.439 62.9217 77.6914 63.2293 76.8499C63.5202 77.9318 63.6549 79.0498 63.6293 80.1699Z" fill="#47C4FB"/>
<path d="M42.2994 88.7799C43.9194 90.4999 46.0894 89.8699 46.3594 88.9999C46.6294 88.1299 45.6494 86.9099 44.4794 86.9299C44.0094 86.9299 43.3194 87.2399 42.7394 87.3199C42.1319 87.346 41.5283 87.2114 40.9894 86.9299C41.3391 87.6038 41.7799 88.2263 42.2994 88.7799Z" fill="#4FAD4E"/>
<path d="M62.1394 88.3698C60.9994 90.4298 58.7294 90.3698 58.2594 89.5898C58.1637 89.3432 58.1224 89.0788 58.1382 88.8148C58.1539 88.5507 58.2265 88.2932 58.3508 88.0597C58.4751 87.8262 58.6484 87.6223 58.8586 87.4618C59.0689 87.3014 59.3113 87.1881 59.5694 87.1298C60.0294 87.0198 60.7694 87.1298 61.3494 87.1298C61.9443 87.0042 62.4959 86.725 62.9494 86.3198C62.7784 87.0383 62.5056 87.7286 62.1394 88.3698Z" fill="#4FAD4E"/>
<path d="M57.8194 78.47C57.1894 80.74 54.9794 81.2 54.3294 80.56C54.1783 80.3416 54.076 80.0933 54.0295 79.8318C53.983 79.5704 53.9932 79.302 54.0596 79.0449C54.1261 78.7878 54.247 78.548 54.4144 78.3418C54.5817 78.1356 54.7914 77.9679 55.0294 77.85C55.4594 77.63 56.1993 77.59 56.7593 77.38C57.3045 77.1207 57.7731 76.7245 58.1193 76.23C58.1299 76.9873 58.0288 77.7421 57.8194 78.47Z" fill="#4FAD4E"/>
<path d="M43.8993 75.8398C44.5393 78.0998 46.7493 78.5698 47.3893 77.9198C47.5371 77.7005 47.6367 77.4522 47.6815 77.1915C47.7262 76.9307 47.7152 76.6635 47.649 76.4074C47.5828 76.1512 47.4631 75.9121 47.2977 75.7056C47.1322 75.4992 46.9249 75.3302 46.6893 75.2098C46.2693 74.9998 45.5193 74.9498 44.9693 74.7398C44.42 74.4828 43.9477 74.0863 43.5993 73.5898C43.5938 74.3502 43.6947 75.1075 43.8993 75.8398Z" fill="#4FAD4E"/>
<path d="M48.4194 24.1997H47.7694V21.6397C47.7694 21.4297 47.7694 21.1697 47.7694 20.8697C47.7407 20.9953 47.704 21.1189 47.6594 21.2397L46.4794 24.2397H46.0194L44.8394 21.2997C44.7954 21.1719 44.7587 21.0417 44.7294 20.9097C44.7438 21.1662 44.7438 21.4233 44.7294 21.6797V24.2397H44.1194V20.2397H45.0394L46.0394 22.8797C46.1194 23.0797 46.1694 23.2297 46.1994 23.3297C46.2694 23.1197 46.3294 22.9697 46.3694 22.8697L47.4994 20.2397H48.3894L48.4194 24.1997Z" fill="#737373"/>
<path d="M49.4993 20.7798C49.3999 20.7821 49.3033 20.7464 49.2293 20.6798C49.1944 20.6461 49.1667 20.6057 49.1478 20.561C49.1289 20.5164 49.1192 20.4683 49.1193 20.4198C49.1184 20.3697 49.1277 20.3199 49.1466 20.2735C49.1655 20.2271 49.1937 20.185 49.2293 20.1498C49.3059 20.0878 49.4008 20.0527 49.4993 20.0498C49.6013 20.0505 49.7 20.0857 49.7793 20.1498C49.815 20.185 49.8431 20.2271 49.862 20.2735C49.881 20.3199 49.8902 20.3697 49.8893 20.4198C49.8893 20.4668 49.8795 20.5133 49.8605 20.5563C49.8416 20.5994 49.8139 20.638 49.7793 20.6698C49.7033 20.7406 49.6032 20.7799 49.4993 20.7798ZM49.8193 24.1998H49.1793V21.3698H49.8193V24.1998Z" fill="#737373"/>
<path d="M52.4394 24.0699C52.1915 24.2062 51.9122 24.2751 51.6294 24.2699C51.4448 24.2773 51.2607 24.2465 51.0886 24.1794C50.9165 24.1123 50.7602 24.0103 50.6294 23.8799C50.3735 23.6104 50.2335 23.2514 50.2394 22.8799C50.2223 22.467 50.3697 22.0642 50.6494 21.7599C50.7976 21.6173 50.9734 21.5065 51.166 21.4343C51.3586 21.3621 51.5639 21.3299 51.7694 21.3399C52.0027 21.3347 52.2344 21.379 52.4494 21.4699V22.0699C52.2707 21.9266 52.0484 21.8489 51.8194 21.8499C51.6951 21.8462 51.5714 21.8683 51.4561 21.9147C51.3408 21.9612 51.2363 22.0311 51.1494 22.1199C51.0609 22.217 50.9924 22.3305 50.9477 22.454C50.9031 22.5776 50.8833 22.7087 50.8894 22.8399C50.8797 23.0967 50.9692 23.3474 51.1394 23.5399C51.2253 23.6231 51.3272 23.6882 51.4389 23.7311C51.5506 23.7741 51.6698 23.7941 51.7894 23.7899C52.0324 23.7896 52.2671 23.7007 52.4494 23.5399L52.4394 24.0699Z" fill="#737373"/>
<path d="M54.4994 21.98C54.3989 21.9136 54.2795 21.8819 54.1594 21.89C54.0655 21.8904 53.9733 21.9145 53.8912 21.9599C53.809 22.0054 53.7397 22.0707 53.6894 22.15C53.5502 22.3558 53.4833 22.602 53.4994 22.85V24.2H52.8594V21.37H53.4994V21.96C53.5472 21.7803 53.6442 21.6176 53.7794 21.49C53.902 21.3841 54.0575 21.324 54.2194 21.32C54.3133 21.3136 54.407 21.3344 54.4894 21.38L54.4994 21.98Z" fill="#737373"/>
<path d="M55.9793 24.27C55.7944 24.2732 55.6107 24.2394 55.439 24.1708C55.2673 24.1021 55.111 23.9998 54.9793 23.87C54.8251 23.7339 54.7024 23.5659 54.6195 23.3777C54.5366 23.1895 54.4956 22.9856 54.4993 22.78C54.4858 22.5765 54.5153 22.3725 54.5859 22.1812C54.6566 21.99 54.7668 21.8158 54.9093 21.67C55.054 21.5323 55.2253 21.4258 55.4128 21.357C55.6003 21.2882 55.7999 21.2585 55.9993 21.27C56.1837 21.2637 56.3675 21.2951 56.5394 21.3621C56.7113 21.4292 56.8678 21.5305 56.9993 21.66C57.1549 21.8024 57.2796 21.9754 57.3656 22.168C57.4516 22.3607 57.4971 22.569 57.4993 22.78C57.5071 22.9775 57.4757 23.1745 57.4071 23.3599C57.3384 23.5452 57.2338 23.7152 57.0993 23.86C56.952 24.0033 56.7761 24.1139 56.5831 24.1846C56.3901 24.2552 56.1843 24.2843 55.9793 24.27ZM55.9793 21.82C55.8662 21.8159 55.7537 21.8372 55.6499 21.8821C55.5461 21.9271 55.4537 21.9947 55.3793 22.08C55.2357 22.2908 55.1589 22.5399 55.1589 22.795C55.1589 23.05 55.2357 23.2992 55.3793 23.51C55.4559 23.5918 55.5489 23.6564 55.6524 23.6995C55.7558 23.7426 55.8673 23.7632 55.9793 23.76C56.0888 23.7667 56.1984 23.7475 56.2991 23.7041C56.3998 23.6607 56.489 23.5942 56.5593 23.51C56.6897 23.2925 56.7586 23.0436 56.7586 22.79C56.7586 22.5363 56.6897 22.2875 56.5593 22.07C56.4962 21.9825 56.4137 21.9109 56.3183 21.8605C56.2229 21.8102 56.1171 21.7827 56.0093 21.78L55.9793 21.82Z" fill="#737373"/>
<path d="M57.7294 24.1098V23.5198C57.951 23.6879 58.2213 23.7791 58.4994 23.7798C58.8894 23.7798 59.0794 23.6698 59.0794 23.4398C59.0949 23.3876 59.0949 23.332 59.0794 23.2798C59.0451 23.2274 58.9965 23.1857 58.9394 23.1598C58.8805 23.1186 58.8167 23.085 58.7494 23.0598L58.4994 22.9798L58.1894 22.8298C58.1038 22.7864 58.026 22.729 57.9594 22.6598C57.8944 22.596 57.8463 22.5169 57.8194 22.4298C57.7858 22.3369 57.7689 22.2387 57.7694 22.1398C57.7668 22.0126 57.8015 21.8875 57.8694 21.7798C57.935 21.6744 58.0239 21.5854 58.1294 21.5198C58.2432 21.4468 58.3682 21.3928 58.4994 21.3598C58.639 21.3446 58.7798 21.3446 58.9194 21.3598C59.1614 21.3566 59.4019 21.3972 59.6294 21.4798V22.0398C59.4272 21.8989 59.1858 21.8254 58.9394 21.8298C58.8664 21.8195 58.7923 21.8195 58.7194 21.8298C58.6589 21.8427 58.6013 21.8664 58.5494 21.8998C58.509 21.9253 58.4748 21.9595 58.4494 21.9998C58.4348 22.0454 58.4348 22.0943 58.4494 22.1398C58.4333 22.1886 58.4333 22.2411 58.4494 22.2898C58.4747 22.3389 58.5127 22.3804 58.5594 22.4098C58.6156 22.4443 58.6761 22.4712 58.7394 22.4898L58.9894 22.5798L59.3094 22.7298C59.402 22.7757 59.4865 22.8365 59.5594 22.9098C59.6293 22.9735 59.684 23.0521 59.7194 23.1398C59.7622 23.2339 59.7828 23.3366 59.7794 23.4398C59.7781 23.5729 59.7438 23.7035 59.6794 23.8198C59.6066 23.9228 59.515 24.011 59.4094 24.0798C59.2926 24.1519 59.1639 24.2027 59.0294 24.2298C58.8794 24.2701 58.7247 24.2902 58.5694 24.2898C58.2789 24.2993 57.9905 24.2375 57.7294 24.1098Z" fill="#737373"/>
<path d="M61.3994 24.2697C61.2063 24.278 61.0137 24.2468 60.8331 24.178C60.6526 24.1092 60.488 24.0043 60.3494 23.8697C60.2198 23.7285 60.1195 23.563 60.0542 23.3828C59.989 23.2026 59.9602 23.0112 59.9694 22.8197C59.9511 22.6178 59.9774 22.4142 60.0462 22.2234C60.115 22.0326 60.2247 21.8592 60.3676 21.7153C60.5105 21.5714 60.6832 21.4606 60.8736 21.3905C61.0639 21.3204 61.2672 21.2929 61.4694 21.3097C61.6539 21.3023 61.838 21.3331 62.0101 21.4002C62.1822 21.4674 62.3386 21.5693 62.4694 21.6997C62.599 21.8466 62.6984 22.0176 62.7619 22.2029C62.8254 22.3882 62.8517 22.5842 62.8394 22.7797C62.8494 22.9775 62.8191 23.1752 62.7504 23.3609C62.6816 23.5465 62.5758 23.7163 62.4394 23.8597C62.3028 23.9949 62.1402 24.1009 61.9614 24.1714C61.7826 24.2419 61.5914 24.2753 61.3994 24.2697ZM61.3994 21.8197C61.2877 21.815 61.1764 21.836 61.0741 21.8811C60.9718 21.9262 60.8812 21.9941 60.8094 22.0797C60.6658 22.2905 60.589 22.5397 60.589 22.7947C60.589 23.0498 60.6658 23.299 60.8094 23.5097C60.8844 23.5908 60.9758 23.655 61.0775 23.6981C61.1792 23.7412 61.2889 23.7622 61.3994 23.7597C61.509 23.7673 61.6188 23.7485 61.7196 23.705C61.8205 23.6615 61.9096 23.5946 61.9794 23.5097C62.1164 23.2946 62.1892 23.0448 62.1892 22.7897C62.1892 22.5347 62.1164 22.2849 61.9794 22.0697C61.9168 21.9817 61.8344 21.9097 61.7389 21.8593C61.6434 21.8089 61.5373 21.7817 61.4294 21.7797L61.3994 21.8197Z" fill="#737373"/>
<path d="M64.8393 20.5398C64.7479 20.4877 64.6446 20.4601 64.5393 20.4598C64.2293 20.4598 64.0694 20.6397 64.0694 20.9897V21.3698H64.7293V21.8798H64.0793V24.1998H63.4293V21.8798H62.9493V21.3698H63.4293V20.9097C63.4237 20.7781 63.4478 20.6468 63.4997 20.5256C63.5516 20.4045 63.6301 20.2965 63.7293 20.2098C63.9316 20.0349 64.1921 19.9422 64.4594 19.9498C64.5853 19.9311 64.7134 19.9311 64.8393 19.9498V20.5398Z" fill="#737373"/>
<path d="M66.5793 24.1698C66.4247 24.2359 66.2573 24.2666 66.0893 24.2598C65.5393 24.2598 65.2693 23.9998 65.2693 23.4698V21.8798H64.7893V21.3698H65.2693V20.7198L65.9093 20.5398V21.3698H66.5793V21.8798H65.9093V23.2898C65.8975 23.4165 65.9293 23.5435 65.9993 23.6498C66.0383 23.6888 66.0854 23.7189 66.1372 23.7379C66.189 23.7569 66.2443 23.7643 66.2993 23.7598C66.4022 23.7647 66.5028 23.7288 66.5793 23.6598V24.1698Z" fill="#737373"/>
<path d="M42.1293 18.9399H39.0093V22.0599H42.1293V18.9399Z" fill="#7FBE00"/>
<path d="M38.7194 18.9399H35.5994V22.0599H38.7194V18.9399Z" fill="#F65212"/>
<path d="M42.1293 22.3699H39.0093V25.4899H42.1293V22.3699Z" fill="#FFBB00"/>
<path d="M38.7194 22.3699H35.5994V25.4899H38.7194V22.3699Z" fill="#00A4F3"/>
<path fill-rule="evenodd" clip-rule="evenodd" d="M94.1794 50.9999C94.1794 59.5223 91.6522 67.8533 86.9174 74.9394C82.1826 82.0256 75.4529 87.5485 67.5792 90.8099C59.7056 94.0713 51.0416 94.9246 42.683 93.262C34.3243 91.5993 26.6464 87.4954 20.6202 81.4692C14.5939 75.4429 10.49 67.765 8.82735 59.4064C7.16472 51.0477 8.01805 42.3838 11.2794 34.5101C14.5408 26.6364 20.0638 19.9067 27.1499 15.1719C34.236 10.4371 42.567 7.90992 51.0894 7.90992C62.5176 7.90992 73.4777 12.4497 81.5586 20.5307C89.6396 28.6116 94.1794 39.5717 94.1794 50.9999ZM51.0894 4.16992C60.3515 4.16992 69.4056 6.91645 77.1068 12.0622C84.8079 17.2079 90.8102 24.5218 94.3547 33.0789C97.8991 41.6359 98.8265 51.0519 97.0196 60.136C95.2126 69.2201 90.7525 77.5644 84.2032 84.1137C77.6539 90.663 69.3096 95.1232 60.2255 96.9301C51.1413 98.737 41.7254 97.8096 33.1683 94.2652C24.6113 90.7207 17.2974 84.7184 12.1517 77.0173C7.00593 69.3161 4.2594 60.262 4.2594 50.9999C4.2594 38.5798 9.19326 26.6684 17.9756 17.8861C26.7579 9.10378 38.6693 4.16992 51.0894 4.16992Z" fill="url(#paint0_linear_1812_347)"/>
<path d="M35.2393 37.8598H34.0093V34.5398C34.0093 34.3698 34.0093 34.1798 34.0093 33.9798V33.3598C34.0093 33.5298 33.9493 33.6698 33.9193 33.7998C33.8992 33.8982 33.8724 33.9951 33.8393 34.0898L32.5393 37.8598H31.5393L30.2193 34.1298C30.1907 34.0413 30.1673 33.9511 30.1493 33.8598C30.1493 33.7298 30.0793 33.5598 30.0393 33.3598C30.0393 33.6298 30.0393 33.8898 30.0393 34.1298C30.0393 34.3698 30.0393 34.5898 30.0393 34.7998V37.8598H28.9093V32.3198H30.7393L31.8693 35.5998C31.9183 35.7201 31.9584 35.8437 31.9893 35.9698C31.9893 36.0898 32.0393 36.2098 32.0693 36.3298C32.0693 36.1998 32.1493 36.0598 32.1793 35.9398L32.2893 35.5998L33.4993 32.3198H35.2793L35.2393 37.8598Z" fill="#474747"/>
<path d="M37.7494 37.8598H36.4994V32.3198H37.7494V37.8598Z" fill="#474747"/>
<path d="M43.1794 37.5899C42.9062 37.7117 42.6214 37.8055 42.3294 37.8699C42.0369 37.9321 41.7384 37.9622 41.4394 37.9599C41.064 37.9941 40.6857 37.945 40.3315 37.8161C39.9773 37.6872 39.656 37.4817 39.3904 37.2142C39.1249 36.9467 38.9216 36.6239 38.7953 36.2688C38.6689 35.9137 38.6225 35.535 38.6594 35.1599C38.6482 34.7737 38.7141 34.389 38.8531 34.0285C38.9922 33.6679 39.2017 33.3387 39.4694 33.0599C39.7482 32.779 40.0825 32.5592 40.4509 32.4146C40.8194 32.27 41.2139 32.2037 41.6094 32.2199C41.8776 32.2203 42.1452 32.2437 42.4094 32.2899C42.659 32.3311 42.9037 32.3981 43.1394 32.4899L42.7694 33.4899C42.5912 33.4226 42.4071 33.3724 42.2194 33.3399C42.0319 33.3017 41.8407 33.2849 41.6494 33.2899C41.2168 33.2972 40.8042 33.473 40.4994 33.7799C40.3321 33.9488 40.202 34.1508 40.1176 34.373C40.0332 34.5952 39.9963 34.8326 40.0094 35.0699C39.9801 35.5486 40.1338 36.0204 40.4394 36.3899C40.5917 36.5501 40.777 36.6751 40.9825 36.7562C41.188 36.8374 41.4088 36.8728 41.6294 36.8599C41.7976 36.8557 41.965 36.8356 42.1294 36.7999C42.3475 36.7573 42.5593 36.6867 42.7594 36.5899L43.1794 37.5899Z" fill="#474747"/>
<path d="M48.4993 37.8599H47.0893L46.3493 36.4999C46.2598 36.3127 46.1417 36.1407 45.9993 35.9899C45.8652 35.8591 45.6865 35.7841 45.4993 35.7799H45.1593V37.8399H43.9093V32.3199H45.9093C46.4418 32.2804 46.9725 32.4175 47.4193 32.7099C47.593 32.851 47.7301 33.0319 47.8189 33.2374C47.9077 33.4428 47.9456 33.6667 47.9293 33.8899C47.9485 34.2528 47.8307 34.6097 47.5993 34.8899C47.3675 35.1702 47.0578 35.3755 46.7093 35.4799C46.892 35.5422 47.0544 35.6528 47.1793 35.7999C47.3148 35.9584 47.4353 36.1291 47.5393 36.3099L48.4993 37.8599ZM45.2493 33.2499V34.8599H45.7893C45.9091 34.8665 46.029 34.8476 46.1411 34.8045C46.2531 34.7614 46.3548 34.6951 46.4393 34.6099C46.5183 34.5317 46.5804 34.4381 46.6217 34.3348C46.663 34.2316 46.6826 34.121 46.6793 34.0099C46.6866 33.9054 46.6717 33.8006 46.6355 33.7023C46.5993 33.6041 46.5426 33.5146 46.4693 33.4399C46.2786 33.3006 46.0448 33.2333 45.8093 33.2499H45.2493Z" fill="#474747"/>
<path d="M51.3793 37.9599C51.0194 37.9725 50.6609 37.9096 50.3267 37.7752C49.9926 37.6409 49.6903 37.4381 49.4393 37.1799C49.1881 36.9128 48.9925 36.5984 48.8638 36.2551C48.735 35.9118 48.6757 35.5463 48.6893 35.1799C48.6604 34.4 48.9367 33.6395 49.4593 33.0599C49.7156 32.7893 50.0264 32.5763 50.3712 32.4349C50.716 32.2935 51.0869 32.2271 51.4593 32.2399C51.8166 32.2244 52.173 32.2861 52.5043 32.4206C52.8356 32.5552 53.1341 32.7596 53.3793 33.0199C53.8869 33.5788 54.1529 34.3157 54.1193 35.0699C54.1483 35.845 53.8759 36.6013 53.3593 37.1799C53.1015 37.4402 52.7923 37.6439 52.4514 37.7782C52.1105 37.9125 51.7454 37.9744 51.3793 37.9599ZM51.3793 36.8799C51.571 36.8842 51.761 36.844 51.9345 36.7624C52.1081 36.6809 52.2603 36.5602 52.3793 36.4099C52.6511 36.0366 52.7853 35.5809 52.7593 35.1199C52.7893 34.6444 52.659 34.1726 52.3893 33.7799C52.2741 33.6247 52.1229 33.4999 51.9486 33.4162C51.7744 33.3326 51.5824 33.2927 51.3893 33.2999C51.1958 33.2971 51.0044 33.3401 50.8307 33.4252C50.6569 33.5104 50.5057 33.6353 50.3893 33.7899C50.114 34.1694 49.9764 34.6316 49.9993 35.0999C49.9738 35.5654 50.1118 36.0253 50.3893 36.3999C50.5082 36.556 50.663 36.6812 50.8405 36.7648C51.0181 36.8483 51.2132 36.8878 51.4093 36.8799H51.3793Z" fill="#474747"/>
<path d="M54.5894 37.4899L55.1094 36.4899C55.3367 36.6349 55.5821 36.7492 55.8394 36.8299C56.0472 36.8906 56.2628 36.9209 56.4794 36.9199C56.7166 36.9376 56.9529 36.8741 57.1494 36.7399C57.2188 36.6835 57.274 36.6116 57.3104 36.53C57.3469 36.4483 57.3637 36.3592 57.3594 36.2699C57.3628 36.1888 57.3495 36.1079 57.3203 36.0322C57.291 35.9565 57.2464 35.8876 57.1894 35.8299C57.0017 35.6986 56.786 35.613 56.5594 35.5799C56.0645 35.4956 55.5997 35.2855 55.2094 34.9699C55.0655 34.8288 54.9536 34.6585 54.8812 34.4705C54.8087 34.2824 54.7774 34.0811 54.7894 33.8799C54.7878 33.6533 54.8363 33.4292 54.9314 33.2235C55.0265 33.0178 55.1658 32.8356 55.3394 32.6899C55.7638 32.3357 56.3075 32.1569 56.8594 32.1899C57.1323 32.1924 57.404 32.2259 57.6694 32.2899C57.9292 32.3498 58.181 32.4405 58.4194 32.5599L57.9494 33.5599C57.7594 33.4516 57.5582 33.3645 57.3494 33.2999C57.1764 33.254 56.9983 33.2305 56.8194 33.2299C56.6166 33.2201 56.4153 33.2687 56.2394 33.3699C56.1705 33.4177 56.1151 33.4823 56.0783 33.5575C56.0415 33.6328 56.0247 33.7163 56.0294 33.7999C56.0264 33.8741 56.0422 33.9479 56.0755 34.0144C56.1087 34.0808 56.1582 34.1378 56.2194 34.1799C56.4341 34.3005 56.6672 34.3849 56.9094 34.4299C57.3903 34.5107 57.8399 34.7217 58.2094 35.0399C58.3502 35.1947 58.4583 35.3764 58.527 35.574C58.5958 35.7716 58.6238 35.9812 58.6094 36.1899C58.6186 36.4293 58.574 36.6677 58.4788 36.8875C58.3836 37.1073 58.2403 37.3029 58.0594 37.4599C57.6016 37.8164 57.0281 37.9909 56.4494 37.9499C56.1124 37.95 55.7767 37.9097 55.4494 37.8299C55.1484 37.7566 54.859 37.6422 54.5894 37.4899Z" fill="#474747"/>
<path d="M61.8293 37.9598C61.4693 37.9737 61.1103 37.9114 60.776 37.7769C60.4417 37.6425 60.1396 37.4391 59.8893 37.1798C59.6381 36.9127 59.4425 36.5984 59.3138 36.255C59.185 35.9117 59.1257 35.5463 59.1393 35.1798C59.1077 34.4013 59.3803 33.641 59.8993 33.0598C60.1563 32.7903 60.4673 32.5779 60.8119 32.4367C61.1565 32.2954 61.527 32.2283 61.8993 32.2398C62.2563 32.2263 62.6122 32.2889 62.9432 32.4233C63.2742 32.5578 63.5729 32.7612 63.8193 33.0198C64.3233 33.5803 64.5856 34.317 64.5493 35.0698C64.5847 35.846 64.3115 36.6046 63.7893 37.1798C63.5341 37.4381 63.2283 37.6407 62.8909 37.775C62.5536 37.9092 62.1922 37.9722 61.8293 37.9598ZM61.8293 36.8798C62.0205 36.8812 62.2096 36.8396 62.3826 36.7583C62.5557 36.677 62.7083 36.5579 62.8293 36.4098C63.0975 36.0353 63.2282 35.5796 63.1993 35.1198C63.227 34.646 63.1007 34.176 62.8393 33.7798C62.723 33.6259 62.5715 33.502 62.3976 33.4185C62.2236 33.335 62.0322 33.2943 61.8393 33.2998C61.646 33.2979 61.4548 33.3412 61.2812 33.4263C61.1076 33.5114 60.9562 33.6359 60.8393 33.7898C60.564 34.1694 60.4264 34.6315 60.4493 35.0998C60.4238 35.5654 60.5618 36.0252 60.8393 36.3998C60.9578 36.554 61.111 36.6778 61.2866 36.7613C61.4622 36.8447 61.655 36.8853 61.8493 36.8798H61.8293Z" fill="#474747"/>
<path d="M68.6894 33.3298H66.7394V34.6998H68.4994V35.6998H66.6994V37.8498H65.4994V32.3198H68.6994L68.6894 33.3298Z" fill="#474747"/>
<path d="M73.4994 33.3298H71.9194V37.8598H70.6594V33.3298H69.0894V32.3298H73.4994V33.3298Z" fill="#474747"/>
<path d="M34.3793 54.1198H31.0593V48.5798H34.2593V49.5798H32.3093V50.8098H34.1193V51.8098H32.3093V53.0798H34.3793V54.1198Z" fill="#474747"/>
<path d="M35.2693 54.1198V48.5798H37.2693C38.0639 48.5183 38.8526 48.7574 39.4793 49.2498C39.7375 49.5115 39.9371 49.8253 40.0647 50.1701C40.1923 50.5149 40.245 50.883 40.2193 51.2498C40.2377 51.6315 40.176 52.0129 40.0382 52.3694C39.9005 52.7259 39.6896 53.0496 39.4193 53.3198C38.8322 53.8499 38.0594 54.1266 37.2693 54.0898L35.2693 54.1198ZM36.4993 49.5998V53.1098H37.1193C37.3552 53.1233 37.5912 53.0866 37.8119 53.0022C38.0325 52.9177 38.2327 52.7874 38.3993 52.6198C38.7184 52.2563 38.8834 51.7829 38.8593 51.2998C38.8707 51.0712 38.8358 50.8427 38.7568 50.6279C38.6778 50.4131 38.5561 50.2165 38.3993 50.0498C38.2245 49.8935 38.0206 49.7733 37.7992 49.6961C37.5778 49.6189 37.3433 49.5862 37.1093 49.5998H36.4993Z" fill="#474747"/>
<path d="M45.6293 51.7198C45.6834 52.3976 45.4758 53.0703 45.0493 53.5998C44.8167 53.8191 44.541 53.9875 44.2397 54.0943C43.9384 54.201 43.6181 54.2438 43.2993 54.2198C42.9905 54.2434 42.6802 54.2013 42.3889 54.0961C42.0976 53.991 41.8319 53.8252 41.6093 53.6098C41.1943 53.0906 40.9939 52.4322 41.0493 51.7698V48.5798H42.2993V51.7798C42.2781 52.1323 42.3691 52.4824 42.5593 52.7798C42.6584 52.8899 42.7806 52.9766 42.9172 53.0337C43.0538 53.0907 43.2014 53.1167 43.3493 53.1098C43.4937 53.1201 43.6385 53.0965 43.7722 53.041C43.9059 52.9854 44.0247 52.8994 44.1193 52.7898C44.3209 52.4974 44.413 52.1434 44.3793 51.7898V48.5798H45.6293V51.7198Z" fill="#474747"/>
<path d="M50.9993 53.85C50.7313 53.976 50.4494 54.07 50.1593 54.13C49.8668 54.1921 49.5684 54.2223 49.2693 54.22C48.8931 54.2579 48.5132 54.2113 48.1573 54.0837C47.8014 53.9561 47.4785 53.7507 47.2121 53.4824C46.9457 53.2141 46.7426 52.8897 46.6176 52.5329C46.4925 52.1761 46.4487 51.7959 46.4893 51.42C46.4721 51.0289 46.5368 50.6385 46.6792 50.2739C46.8216 49.9093 47.0386 49.5785 47.3164 49.3026C47.5941 49.0268 47.9264 48.812 48.292 48.672C48.6576 48.5321 49.0484 48.4701 49.4393 48.49C49.7072 48.4877 49.9748 48.5078 50.2393 48.55C50.4876 48.5971 50.7317 48.6639 50.9693 48.75L50.5993 49.75C50.4211 49.6826 50.237 49.6324 50.0493 49.6C49.8597 49.5834 49.6689 49.5834 49.4793 49.6C49.2607 49.5983 49.0439 49.6399 48.8414 49.7223C48.6389 49.8046 48.4547 49.9262 48.2993 50.08C48.1312 50.2486 47.9999 50.4504 47.9139 50.6725C47.8278 50.8945 47.7888 51.132 47.7993 51.37C47.7738 51.8498 47.931 52.3214 48.2393 52.69C48.3911 52.8514 48.5761 52.9779 48.7815 53.0607C48.987 53.1436 49.208 53.1809 49.4293 53.17C49.5982 53.1667 49.766 53.1432 49.9293 53.1C50.1466 53.0542 50.358 52.9838 50.5593 52.89L50.9993 53.85Z" fill="#474747"/>
<path d="M51.1793 54.1198L53.1793 48.5798H54.6593L56.6593 54.1198H55.2993L54.9293 52.9698H52.9293L52.4993 54.1198H51.1793ZM53.1793 51.9898H54.6293L54.0193 50.0698C54.0193 49.9898 54.0193 49.9298 53.9593 49.8698C53.9557 49.7999 53.9557 49.7298 53.9593 49.6598C53.9669 49.7263 53.9669 49.7934 53.9593 49.8598C53.9627 49.9231 53.9627 49.9865 53.9593 50.0498L53.1793 51.9898Z" fill="#474747"/>
<path d="M60.6693 49.5999H59.0893V54.1199H57.8293V49.5999H56.2593V48.5999H60.6693V49.5999Z" fill="#474747"/>
<path d="M63.3893 54.2198C63.0303 54.2318 62.6728 54.1696 62.339 54.0372C62.0051 53.9047 61.7023 53.7047 61.4493 53.4498C61.199 53.182 61.004 52.8676 60.8753 52.5244C60.7466 52.1812 60.6868 51.8161 60.6993 51.4498C60.6651 50.6678 60.9378 49.9035 61.4593 49.3198C61.7168 49.0515 62.0281 48.8407 62.3727 48.7011C62.7174 48.5615 63.0877 48.4963 63.4593 48.5098C63.8154 48.4969 64.1702 48.5587 64.5009 48.6913C64.8316 48.824 65.1308 49.0244 65.3793 49.2798C65.8814 49.8414 66.1434 50.5773 66.1093 51.3298C66.141 52.1036 65.8723 52.8596 65.3593 53.4398C65.1026 53.6988 64.795 53.9018 64.456 54.0361C64.1169 54.1703 63.7537 54.2329 63.3893 54.2198ZM63.3893 53.1398C63.5801 53.1453 63.7697 53.1066 63.9431 53.0268C64.1166 52.947 64.2693 52.8283 64.3893 52.6798C64.6633 52.3038 64.7977 51.8441 64.7693 51.3798C64.7993 50.9043 64.669 50.4325 64.3993 50.0398C64.2841 49.8846 64.1329 49.7598 63.9586 49.6761C63.7844 49.5925 63.5924 49.5526 63.3993 49.5598C63.2066 49.5616 63.0167 49.6065 62.8437 49.6913C62.6706 49.7761 62.5188 49.8986 62.3993 50.0498C62.1318 50.4327 61.9982 50.8932 62.0193 51.3598C61.995 51.8237 62.129 52.282 62.3993 52.6598C62.5198 52.8141 62.6749 52.9379 62.8521 53.0213C63.0293 53.1047 63.2236 53.1453 63.4193 53.1398H63.3893Z" fill="#474747"/>
<path d="M71.5593 54.1199H70.1493L69.4093 52.7799C69.3159 52.5956 69.1944 52.427 69.0493 52.2799C68.9393 52.1687 68.7947 52.0982 68.6393 52.0799H68.2993V54.1399H67.0493V48.5799H69.0493C69.5849 48.5412 70.1185 48.6781 70.5693 48.9699C70.7393 49.1136 70.8732 49.2953 70.96 49.5003C71.0469 49.7053 71.0843 49.9278 71.0693 50.1499C71.0894 50.5113 70.9754 50.8673 70.7493 51.1499C70.5163 51.4289 70.207 51.6339 69.8593 51.7399C70.04 51.8006 70.1996 51.9116 70.3193 52.0599C70.4581 52.2217 70.5819 52.3958 70.6893 52.5799L71.5593 54.1199ZM68.2993 49.5199V51.1199H68.8393C68.9583 51.1266 69.0774 51.1087 69.1892 51.0674C69.3011 51.0261 69.4032 50.9623 69.4893 50.8799C69.5709 50.8011 69.6353 50.7061 69.6783 50.6011C69.7213 50.4961 69.7421 50.3833 69.7393 50.2699C69.7481 50.1659 69.7328 50.0614 69.6946 49.9643C69.6565 49.8671 69.5965 49.7801 69.5193 49.7099C69.3338 49.568 69.1021 49.5003 68.8693 49.5199H68.2993Z" fill="#474747"/>
<path d="M39.2993 64.85V64.29C39.2977 63.9466 39.3658 63.6064 39.4993 63.29C39.6178 62.9944 39.7795 62.718 39.9793 62.47C40.1689 62.2405 40.3798 62.0295 40.6093 61.84L41.2593 61.34C41.458 61.2049 41.6483 61.0579 41.8293 60.9C41.9763 60.7741 42.1165 60.6406 42.2493 60.5C42.3712 60.3736 42.4664 60.2239 42.5293 60.06C42.5848 59.8854 42.6118 59.7031 42.6093 59.52C42.6127 59.4044 42.5932 59.2892 42.5521 59.1811C42.5109 59.073 42.4488 58.9741 42.3693 58.89C42.2777 58.7996 42.1679 58.7297 42.0472 58.6849C41.9266 58.6401 41.7978 58.6213 41.6693 58.63C41.4056 58.6406 41.1455 58.6947 40.8993 58.79C40.5699 58.8994 40.2621 59.0652 39.9893 59.28L39.2094 58.28C39.5916 57.9757 40.0251 57.7421 40.4893 57.59C40.9536 57.4362 41.4404 57.3619 41.9293 57.37C42.5447 57.3379 43.1491 57.5418 43.6193 57.94C43.8192 58.1162 43.9789 58.3332 44.0876 58.5765C44.1963 58.8198 44.2515 59.0836 44.2493 59.35C44.2856 59.9889 44.0783 60.6178 43.6693 61.11C43.4925 61.3319 43.2912 61.5331 43.0694 61.71C42.8394 61.89 42.6093 62.06 42.3593 62.23L41.8793 62.58C41.7378 62.6833 41.6041 62.7969 41.4793 62.92C41.3718 63.0171 41.2777 63.1281 41.1993 63.25C41.1353 63.3377 41.0972 63.4417 41.0893 63.55H44.2393V64.91L39.2993 64.85Z" fill="#474747"/>
<path d="M47.8194 64.9798C47.4336 65.0145 47.0456 64.9468 46.6944 64.7835C46.3432 64.6202 46.0414 64.3671 45.8194 64.0498C45.351 63.1979 45.1359 62.2299 45.1994 61.2598C45.1352 60.2345 45.3715 59.2128 45.8794 58.3198C46.1023 58.0133 46.3933 57.7626 46.7295 57.5876C47.0657 57.4126 47.438 57.318 47.8169 57.3112C48.1959 57.3044 48.5713 57.3856 48.9135 57.5485C49.2558 57.7114 49.5556 57.9514 49.7894 58.2498C50.2332 59.1276 50.4334 60.1083 50.3694 61.0898C50.4304 62.094 50.2087 63.0953 49.7294 63.9798C49.5257 64.2985 49.2424 64.5584 48.9073 64.7338C48.5723 64.9092 48.1973 64.994 47.8194 64.9798ZM47.8194 58.5498C47.4894 58.5498 47.2494 58.7798 47.1094 59.2198C46.9447 59.8731 46.874 60.5465 46.8994 61.2198C46.8728 61.8542 46.947 62.4887 47.1194 63.0998C47.2694 63.5198 47.4994 63.7298 47.8294 63.7298C48.1594 63.7298 48.4294 63.5098 48.5594 63.0798C48.7048 62.4438 48.7687 61.7919 48.7494 61.1398C48.7715 60.487 48.7042 59.8343 48.5494 59.1998C48.4094 58.7798 48.1594 58.5498 47.8094 58.5498H47.8194Z" fill="#474747"/>
<path d="M51.4993 64.8498V64.2898C51.4945 63.9471 51.5591 63.6069 51.6893 63.2898C51.8155 62.9981 51.9766 62.7227 52.1693 62.4698C52.3614 62.2427 52.5721 62.032 52.7993 61.8398L53.4593 61.3398C53.6548 61.2048 53.8419 61.0579 54.0193 60.8998L54.4493 60.4998C54.5682 60.373 54.6601 60.2233 54.7193 60.0598C54.7833 59.8872 54.8139 59.7039 54.8093 59.5198C54.8127 59.4042 54.7932 59.2891 54.752 59.181C54.7108 59.0728 54.6488 58.9739 54.5693 58.8898C54.4754 58.7997 54.3638 58.7301 54.2416 58.6853C54.1194 58.6406 53.9892 58.6217 53.8593 58.6298C53.5988 58.6407 53.342 58.6947 53.0993 58.7898C52.769 58.8972 52.4607 59.0632 52.1893 59.2798L51.3993 58.2798C51.7828 57.9775 52.2159 57.7441 52.6793 57.5898C53.1439 57.4377 53.6305 57.3634 54.1193 57.3698C54.7378 57.3372 55.3455 57.541 55.8193 57.9398C56.0163 58.1178 56.1735 58.3354 56.2803 58.5784C56.3872 58.8215 56.4414 59.0844 56.4393 59.3498C56.4462 59.6893 56.3955 60.0274 56.2893 60.3498C56.1836 60.6104 56.0386 60.8532 55.8593 61.0698C55.6825 61.2917 55.4812 61.493 55.2593 61.6698C55.0393 61.8498 54.7993 62.0198 54.5593 62.1898C54.3193 62.3598 54.2293 62.4198 54.0793 62.5398C53.9346 62.6432 53.7976 62.7568 53.6693 62.8798C53.5618 62.977 53.4676 63.088 53.3893 63.2098C53.3278 63.2982 53.2931 63.4023 53.2893 63.5098H56.4293V64.8698L51.4993 64.8498Z" fill="#474747"/>
<path d="M61.9594 57.4299V62.1099H62.6594V63.3299H61.9594V64.8499H60.4094V63.3299H57.3494V62.0499C57.6227 61.7299 57.9027 61.3799 58.1894 60.9999C58.4794 60.6199 58.7594 60.2299 59.0294 59.8199C59.2994 59.4099 59.5494 59.0099 59.7894 58.5999C60.0078 58.2213 60.2047 57.8307 60.3794 57.4299H61.9594ZM58.7694 62.1099H60.4094V59.5599C60.2894 59.7799 60.1694 60.0099 60.0294 60.2399L59.6194 60.9099C59.4794 61.1299 59.3294 61.3399 59.1894 61.5399C59.0494 61.7399 58.9094 61.9299 58.7694 62.1099Z" fill="#474747"/>
<path d="M29.3993 46.0698L31.3993 40.5198H32.8793L34.8793 46.0698H33.4993L33.1293 44.9098H31.1293L30.7593 46.0698H29.3993ZM31.3993 43.9398H32.8493L32.2393 42.0098C32.2393 41.9298 32.2393 41.8698 32.1793 41.8098C32.1193 41.7498 32.1793 41.6898 32.1793 41.6098C32.185 41.6763 32.185 41.7432 32.1793 41.8098C32.1793 41.8098 32.1793 41.9298 32.1793 41.9998L31.3993 43.9398Z" fill="#474747"/>
<path d="M35.5693 46.0698V40.5198H37.5693C38.3684 40.4605 39.1605 40.7032 39.7893 41.1998C40.0447 41.4631 40.2418 41.7773 40.3675 42.1219C40.4933 42.4665 40.545 42.8338 40.5193 43.1998C40.5388 43.5801 40.4776 43.9603 40.3397 44.3153C40.2019 44.6704 39.9904 44.9922 39.7193 45.2598C39.1338 45.7935 38.3609 46.0739 37.5693 46.0398L35.5693 46.0698ZM36.8193 41.5398V45.0498H37.4293C37.6643 45.0633 37.8996 45.0276 38.12 44.945C38.3404 44.8623 38.5412 44.7345 38.7093 44.5698C39.0309 44.2038 39.1961 43.7262 39.1693 43.2398C39.1819 43.011 39.1476 42.7822 39.0685 42.5672C38.9894 42.3523 38.8672 42.1557 38.7093 41.9898C38.537 41.8328 38.3349 41.7122 38.115 41.6349C37.8951 41.5575 37.6619 41.5252 37.4293 41.5398H36.8193Z" fill="#474747"/>
<path d="M45.8294 40.5198L43.9194 46.0698H42.4994L40.6194 40.5198H41.9594L43.1194 44.3798C43.1194 44.4898 43.1194 44.5898 43.1894 44.6798C43.2594 44.7698 43.1894 44.8498 43.1894 44.9298C43.1894 44.8498 43.1894 44.7598 43.2394 44.6598C43.2894 44.5598 43.2394 44.4698 43.3094 44.3698L44.4994 40.5198H45.8294Z" fill="#474747"/>
<path d="M45.4293 46.0698L47.4293 40.5198H48.9093L50.9093 46.0698H49.4993L49.1293 44.9098H47.1293L46.7593 46.0698H45.4293ZM47.4293 43.9398H48.8793L48.2693 42.0098C48.2693 41.9298 48.2693 41.8698 48.2093 41.8098C48.1493 41.7498 48.2093 41.6898 48.2093 41.6098C48.215 41.6763 48.215 41.7432 48.2093 41.8098C48.2093 41.8098 48.2093 41.9298 48.2093 41.9998L47.4293 43.9398Z" fill="#474747"/>
<path d="M56.5794 46.0698H55.3194L53.0394 42.5798L52.8694 42.3198C52.8292 42.2551 52.7925 42.1883 52.7594 42.1198C52.7594 42.2198 52.7594 42.3498 52.7594 42.4998C52.7594 42.6498 52.7594 42.8198 52.7594 43.0198V46.0198H51.5994V40.5198H52.9394L55.1394 43.8998L55.2894 44.1198L55.4194 44.3498C55.4194 44.2898 55.4194 44.1898 55.4194 44.0598V40.5198H56.5894L56.5794 46.0698Z" fill="#474747"/>
<path d="M62.0194 45.7799C61.7467 45.9031 61.4618 45.9969 61.1694 46.0599C60.8797 46.118 60.5847 46.1448 60.2893 46.1399C59.5538 46.1732 58.8349 45.9144 58.2893 45.4199C58.0277 45.1436 57.826 44.8162 57.697 44.4583C57.5679 44.1003 57.5142 43.7195 57.5393 43.3399C57.5262 42.9456 57.5954 42.5528 57.7424 42.1867C57.8895 41.8206 58.1112 41.4892 58.3934 41.2135C58.6757 40.9379 59.0123 40.724 59.3817 40.5857C59.7512 40.4473 60.1455 40.3874 60.5393 40.4099C60.8039 40.4076 61.0682 40.4277 61.3294 40.4699C61.5782 40.5144 61.8225 40.5814 62.0594 40.6699L61.6894 41.6699C61.5112 41.6025 61.327 41.5523 61.1394 41.5199C60.953 41.5039 60.7657 41.5039 60.5794 41.5199C60.3611 41.5147 60.1441 41.5536 59.9414 41.6344C59.7386 41.7152 59.5542 41.8361 59.3993 41.9899C59.23 42.1597 59.098 42.3631 59.0119 42.587C58.9258 42.8109 58.8874 43.0503 58.8993 43.2899C58.8685 43.7656 59.0226 44.2349 59.3294 44.5999C59.4827 44.762 59.6694 44.889 59.8766 44.9719C60.0838 45.0547 60.3065 45.0916 60.5294 45.0799C60.6975 45.0752 60.8649 45.0551 61.0294 45.0199C61.2441 44.965 61.4546 44.8948 61.6594 44.8099L62.0194 45.7799Z" fill="#474747"/>
<path d="M66.1193 46.0698H62.7893V40.5198H65.9893V41.5198H63.9893V42.7798H65.8093V43.7798H63.9893V45.0398H66.0693L66.1193 46.0698Z" fill="#474747"/>
<path d="M67.0093 46.0698V40.5198H69.0093C69.8083 40.4605 70.6005 40.7032 71.2293 41.1998C71.4847 41.4631 71.6817 41.7773 71.8075 42.1219C71.9333 42.4665 71.985 42.8338 71.9593 43.1998C71.9788 43.5801 71.9176 43.9603 71.7797 44.3153C71.6418 44.6704 71.4304 44.9922 71.1593 45.2598C70.5737 45.7935 69.8008 46.0739 69.0093 46.0398L67.0093 46.0698ZM68.2593 41.5398V45.0498H68.8793C69.1127 45.0625 69.3462 45.0264 69.5649 44.9438C69.7836 44.8611 69.9826 44.7337 70.1493 44.5698C70.4709 44.2038 70.6361 43.7262 70.6093 43.2398C70.6219 43.011 70.5876 42.7822 70.5085 42.5672C70.4293 42.3523 70.3071 42.1557 70.1493 41.9898C69.9769 41.8328 69.7748 41.7122 69.5549 41.6349C69.3351 41.5575 69.1019 41.5252 68.8693 41.5398H68.2593Z" fill="#474747"/>
</g>
<defs>
<linearGradient id="paint0_linear_1812_347" x1="51.0894" y1="4.16992" x2="51.0894" y2="97.8299" gradientUnits="userSpaceOnUse">
<stop stop-color="#BDBDBD"/>
<stop offset="0.17" stop-color="#A2A2A2"/>
<stop offset="0.32" stop-color="#878787"/>
<stop offset="0.5" stop-color="#505050"/>
<stop offset="0.72" stop-color="#484848"/>
<stop offset="0.83" stop-color="#404040"/>
<stop offset="1" stop-color="#303030"/>
</linearGradient>
<clipPath id="clip0_1812_347">
<rect width="99.28" height="99.28" fill="white" transform="translate(1.44934 1.35986)"/>
</clipPath>
</defs>
</svg>
