<svg width="103" height="103" viewBox="0 0 103 103" fill="none" xmlns="http://www.w3.org/2000/svg">
<path d="M51.2758 98.4423C25.4258 98.4423 4.46582 77.4923 4.46582 51.6323C4.46582 25.7723 25.4258 4.82227 51.2758 4.82227C77.1258 4.82227 98.0858 25.7823 98.0858 51.6323C98.0858 77.4823 77.1258 98.4423 51.2758 98.4423Z" fill="#FEFEFE"/>
<path fill-rule="evenodd" clip-rule="evenodd" d="M97.1757 51.6324C97.1757 76.9824 76.6257 97.5324 51.2757 97.5324C25.9257 97.5324 5.37574 76.9824 5.37574 51.6324C5.37574 26.2824 25.9257 5.73244 51.2757 5.73244C76.6257 5.73244 97.1757 26.2824 97.1757 51.6324ZM51.2757 1.99243C78.6957 1.99243 100.916 24.2124 100.916 51.6324C100.916 79.0524 78.6857 101.272 51.2757 101.272C23.8557 101.272 1.63574 79.0424 1.63574 51.6324C1.63574 24.2124 23.8557 1.99243 51.2757 1.99243Z" fill="#F2F1F0"/>
<path d="M29.8239 47.9937H28.1462V43.4814C28.1462 42.9941 28.1672 42.4559 28.2093 41.8668H28.1672C28.0796 42.3297 28.0007 42.6627 27.9306 42.8661L26.1635 47.9937H24.7751L22.9765 42.9187C22.9274 42.7819 22.8485 42.4313 22.7398 41.8668H22.6925C22.7381 42.6101 22.7609 43.2623 22.7609 43.8232V47.9937H21.2305V40.4521H23.718L25.2589 44.9224C25.3817 45.28 25.4711 45.6394 25.5272 46.0005H25.5587C25.6534 45.5833 25.7533 45.2204 25.8585 44.9119L27.3994 40.4521H29.8239V47.9937Z" fill="#474747"/>
<path d="M33.237 47.9937H31.5383V40.4521H33.237V47.9937Z" fill="#474747"/>
<path d="M40.3631 47.7255C39.8127 47.992 39.0939 48.1252 38.2069 48.1252C37.0499 48.1252 36.1401 47.7851 35.4774 47.1049C34.8148 46.4247 34.4834 45.5184 34.4834 44.386C34.4834 43.1799 34.8551 42.2017 35.5984 41.4514C36.3452 40.7011 37.3128 40.3259 38.5014 40.3259C39.2377 40.3259 39.8583 40.4188 40.3631 40.6047V42.2402C39.8583 41.9387 39.2833 41.788 38.6381 41.788C37.9299 41.788 37.3584 42.0106 36.9237 42.4559C36.4889 42.9011 36.2715 43.5042 36.2715 44.265C36.2715 44.9943 36.4766 45.5763 36.8869 46.011C37.2971 46.4423 37.8493 46.6579 38.5435 46.6579C39.2061 46.6579 39.8127 46.4966 40.3631 46.1741V47.7255Z" fill="#474747"/>
<path d="M48.0046 47.9937H46.0535L44.8807 46.0531C44.7931 45.9058 44.7089 45.7744 44.6283 45.6587C44.5476 45.543 44.4652 45.4448 44.3811 45.3642C44.3005 45.28 44.2146 45.2169 44.1234 45.1748C44.0357 45.1293 43.9393 45.1065 43.8341 45.1065H43.3766V47.9937H41.6779V40.4521H44.3706C46.2007 40.4521 47.1158 41.1358 47.1158 42.5032C47.1158 42.7662 47.0755 43.0098 46.9949 43.2342C46.9142 43.4551 46.8003 43.6549 46.653 43.8338C46.5058 44.0126 46.327 44.1668 46.1166 44.2966C45.9097 44.4263 45.6783 44.528 45.4224 44.6016V44.6226C45.5346 44.6577 45.6433 44.7155 45.7485 44.7962C45.8536 44.8733 45.9553 44.9645 46.0535 45.0696C46.1517 45.1748 46.2446 45.2888 46.3322 45.4115C46.4234 45.5307 46.5058 45.6482 46.5794 45.7639L48.0046 47.9937ZM43.3766 41.7249V43.8232H44.1129C44.4775 43.8232 44.7703 43.7181 44.9911 43.5077C45.2155 43.2938 45.3277 43.0291 45.3277 42.7136C45.3277 42.0544 44.9333 41.7249 44.1444 41.7249H43.3766Z" fill="#474747"/>
<path d="M51.7964 48.1252C50.7166 48.1252 49.8365 47.7746 49.1564 47.0734C48.4762 46.3686 48.1361 45.4518 48.1361 44.3229C48.1361 43.1308 48.4814 42.1666 49.1721 41.4303C49.8628 40.6941 50.7779 40.3259 51.9174 40.3259C52.9938 40.3259 53.8633 40.6783 54.5259 41.383C55.1921 42.0877 55.5252 43.0168 55.5252 44.1703C55.5252 45.3554 55.1798 46.3108 54.4891 47.0366C53.8019 47.7623 52.9044 48.1252 51.7964 48.1252ZM51.8701 41.788C51.274 41.788 50.8007 42.0124 50.4501 42.4611C50.0995 42.9064 49.9242 43.4972 49.9242 44.2334C49.9242 44.9802 50.0995 45.571 50.4501 46.0058C50.8007 46.4405 51.26 46.6579 51.828 46.6579C52.4135 46.6579 52.8781 46.4475 53.2217 46.0268C53.5653 45.6026 53.7371 45.0153 53.7371 44.265C53.7371 43.4831 53.5705 42.8748 53.2374 42.4401C52.9044 42.0053 52.4486 41.788 51.8701 41.788Z" fill="#474747"/>
<path d="M56.435 47.7045V46.0215C56.74 46.2775 57.0713 46.4703 57.429 46.6001C57.7866 46.7263 58.1477 46.7894 58.5123 46.7894C58.7262 46.7894 58.912 46.7701 59.0698 46.7315C59.2311 46.693 59.3643 46.6404 59.4695 46.5738C59.5782 46.5036 59.6588 46.423 59.7114 46.3318C59.764 46.2372 59.7903 46.1355 59.7903 46.0268C59.7903 45.8796 59.7482 45.7481 59.6641 45.6324C59.5799 45.5167 59.4642 45.4097 59.317 45.3116C59.1732 45.2134 59.0014 45.1187 58.8016 45.0276C58.6017 44.9364 58.3861 44.8435 58.1547 44.7488C57.5657 44.5034 57.1257 44.2036 56.8347 43.8495C56.5472 43.4954 56.4034 43.0677 56.4034 42.5663C56.4034 42.1736 56.4823 41.837 56.6401 41.5566C56.7979 41.2726 57.0117 41.0394 57.2817 40.8571C57.5552 40.6748 57.8707 40.5416 58.2283 40.4574C58.586 40.3698 58.9646 40.3259 59.3643 40.3259C59.757 40.3259 60.1041 40.3505 60.4056 40.3996C60.7106 40.4451 60.9911 40.517 61.2471 40.6152V42.1877C61.1209 42.1 60.9824 42.0229 60.8316 41.9563C60.6843 41.8896 60.5318 41.8353 60.3741 41.7932C60.2163 41.7476 60.0585 41.7143 59.9007 41.6933C59.7465 41.6723 59.5992 41.6617 59.459 41.6617C59.2661 41.6617 59.0908 41.681 58.9331 41.7196C58.7753 41.7547 58.6421 41.8055 58.5334 41.8721C58.4247 41.9387 58.3405 42.0194 58.2809 42.114C58.2213 42.2052 58.1915 42.3086 58.1915 42.4243C58.1915 42.5505 58.2248 42.6645 58.2914 42.7662C58.3581 42.8643 58.4527 42.959 58.5754 43.0501C58.6982 43.1378 58.8472 43.2255 59.0225 43.3131C59.1978 43.3973 59.3959 43.4849 59.6167 43.5761C59.9183 43.7023 60.1882 43.8373 60.4266 43.981C60.6686 44.1213 60.8754 44.2808 61.0472 44.4596C61.219 44.6384 61.3505 44.8435 61.4417 45.0749C61.5328 45.3028 61.5784 45.5693 61.5784 45.8743C61.5784 46.295 61.4978 46.6491 61.3365 46.9366C61.1787 47.2206 60.9631 47.452 60.6896 47.6308C60.4161 47.8061 60.0971 47.9324 59.7324 48.0095C59.3713 48.0866 58.9892 48.1252 58.586 48.1252C58.1722 48.1252 57.7778 48.0901 57.4027 48.02C57.031 47.9499 56.7085 47.8447 56.435 47.7045Z" fill="#474747"/>
<path d="M66.0066 48.1252C64.9267 48.1252 64.0467 47.7746 63.3665 47.0734C62.6863 46.3686 62.3462 45.4518 62.3462 44.3229C62.3462 43.1308 62.6916 42.1666 63.3823 41.4303C64.073 40.6941 64.9881 40.3259 66.1275 40.3259C67.2039 40.3259 68.0734 40.6783 68.7361 41.383C69.4022 42.0877 69.7353 43.0168 69.7353 44.1703C69.7353 45.3554 69.3899 46.3108 68.6992 47.0366C68.012 47.7623 67.1145 48.1252 66.0066 48.1252ZM66.0802 41.788C65.4842 41.788 65.0108 42.0124 64.6602 42.4611C64.3096 42.9064 64.1343 43.4972 64.1343 44.2334C64.1343 44.9802 64.3096 45.571 64.6602 46.0058C65.0108 46.4405 65.4701 46.6579 66.0381 46.6579C66.6236 46.6579 67.0882 46.4475 67.4318 46.0268C67.7754 45.6026 67.9472 45.0153 67.9472 44.265C67.9472 43.4831 67.7806 42.8748 67.4476 42.4401C67.1145 42.0053 66.6587 41.788 66.0802 41.788Z" fill="#474747"/>
<path d="M75.352 41.8353H72.6909V43.6865H75.1364V45.0644H72.6909V47.9937H70.9922V40.4521H75.352V41.8353Z" fill="#474747"/>
<path d="M82.0311 41.8353H79.8801V47.9937H78.1762V41.8353H76.0357V40.4521H82.0311V41.8353Z" fill="#474747"/>
<path d="M28.5985 58.9937H24.0757V51.4521H28.4249V52.8353H25.7743V54.5129H28.2409V55.8908H25.7743V57.6158H28.5985V58.9937Z" fill="#474747"/>
<path d="M29.8081 58.9937V51.4521H32.4797C35.1584 51.4521 36.4977 52.6775 36.4977 55.1283C36.4977 56.3028 36.1313 57.2407 35.3985 57.9419C34.6693 58.6431 33.6963 58.9937 32.4797 58.9937H29.8081ZM31.5068 52.8353V57.6158H32.3482C33.0845 57.6158 33.6613 57.3949 34.0785 56.9532C34.4992 56.5114 34.7096 55.9101 34.7096 55.1493C34.7096 54.4306 34.501 53.8661 34.0837 53.4559C33.67 53.0422 33.088 52.8353 32.3377 52.8353H31.5068Z" fill="#474747"/>
<path d="M43.8973 55.7278C43.8973 57.9927 42.8419 59.1252 40.7313 59.1252C38.6837 59.1252 37.6599 58.019 37.6599 55.8067V51.4521H39.3639V55.8277C39.3639 57.0478 39.8407 57.6579 40.7944 57.6579C41.7305 57.6579 42.1986 57.0689 42.1986 55.8908V51.4521H43.8973V55.7278Z" fill="#474747"/>
<path d="M50.9497 58.7255C50.3993 58.992 49.6805 59.1252 48.7935 59.1252C47.6365 59.1252 46.7267 58.7851 46.064 58.1049C45.4014 57.4247 45.07 56.5184 45.07 55.386C45.07 54.1799 45.4417 53.2017 46.185 52.4514C46.9318 51.7011 47.8994 51.3259 49.088 51.3259C49.8243 51.3259 50.4448 51.4188 50.9497 51.6047V53.2402C50.4448 52.9387 49.8699 52.788 49.2247 52.788C48.5165 52.788 47.945 53.0106 47.5103 53.4559C47.0755 53.9011 46.8581 54.5042 46.8581 55.265C46.8581 55.9943 47.0632 56.5763 47.4735 57.011C47.8837 57.4423 48.4359 57.6579 49.1301 57.6579C49.7927 57.6579 50.3993 57.4966 50.9497 57.1741V58.7255Z" fill="#474747"/>
<path d="M58.8962 58.9937H57.045L56.5086 57.3161H53.8265L53.2953 58.9937H51.4546L54.1999 51.4521H56.2141L58.8962 58.9937ZM56.1194 56.0118L55.3095 53.4769C55.2499 53.2876 55.2079 53.0614 55.1833 52.7985H55.1412C55.1237 53.0194 55.0799 53.2385 55.0098 53.4559L54.1893 56.0118H56.1194Z" fill="#474747"/>
<path d="M64.3762 52.8353H62.2253V58.9937H60.5213V52.8353H58.3809V51.4521H64.3762V52.8353Z" fill="#474747"/>
<path d="M68.1786 59.1252C67.0987 59.1252 66.2187 58.7746 65.5385 58.0734C64.8583 57.3687 64.5182 56.4518 64.5182 55.3229C64.5182 54.1308 64.8636 53.1666 65.5543 52.4303C66.245 51.6941 67.1601 51.3259 68.2995 51.3259C69.3759 51.3259 70.2454 51.6783 70.9081 52.383C71.5742 53.0877 71.9073 54.0168 71.9073 55.1703C71.9073 56.3554 71.5619 57.3108 70.8713 58.0366C70.1841 58.7623 69.2865 59.1252 68.1786 59.1252ZM68.2522 52.788C67.6562 52.788 67.1829 53.0124 66.8323 53.4611C66.4816 53.9064 66.3063 54.4972 66.3063 55.2334C66.3063 55.9802 66.4816 56.571 66.8323 57.0058C67.1829 57.4405 67.6422 57.6579 68.2101 57.6579C68.7957 57.6579 69.2602 57.4475 69.6038 57.0268C69.9474 56.6026 70.1192 56.0153 70.1192 55.265C70.1192 54.4831 69.9527 53.8748 69.6196 53.4401C69.2865 53.0053 68.8307 52.788 68.2522 52.788Z" fill="#474747"/>
<path d="M79.4909 58.9937H77.5398L76.367 57.0531C76.2794 56.9058 76.1952 56.7744 76.1146 56.6587C76.0339 56.543 75.9516 56.4448 75.8674 56.3642C75.7868 56.28 75.7009 56.2169 75.6097 56.1748C75.5221 56.1293 75.4256 56.1065 75.3205 56.1065H74.8629V58.9937H73.1642V51.4521H75.8569C77.6871 51.4521 78.6021 52.1358 78.6021 53.5032C78.6021 53.7662 78.5618 54.0098 78.4812 54.2342C78.4006 54.4551 78.2866 54.6549 78.1394 54.8338C77.9921 55.0126 77.8133 55.1668 77.6029 55.2966C77.3961 55.4263 77.1647 55.528 76.9087 55.6016V55.6226C77.0209 55.6577 77.1296 55.7155 77.2348 55.7962C77.34 55.8733 77.4416 55.9645 77.5398 56.0696C77.638 56.1748 77.7309 56.2888 77.8185 56.4115C77.9097 56.5307 77.9921 56.6482 78.0657 56.7639L79.4909 58.9937ZM74.8629 52.7249V54.8232H75.5992C75.9638 54.8232 76.2566 54.7181 76.4775 54.5077C76.7019 54.2938 76.8141 54.0291 76.8141 53.7136C76.8141 53.0544 76.4196 52.7249 75.6307 52.7249H74.8629Z" fill="#474747"/>
<path d="M54.4332 69.0514C50.4055 69.8052 49.2599 73.5743 50.2921 74.779C51.3687 76.0477 54.0169 75.7102 55.091 73.9808C55.5221 73.2837 55.7216 71.9903 56.1552 71.069C56.7587 69.7806 58.3723 68.8765 58.3723 68.8765C56.8819 68.8075 56.0419 68.7385 54.4332 69.0514Z" fill="#C64DD9"/>
<path d="M55.2853 86.1169C54.9217 86.4989 54.62 86.9352 54.3911 87.4103C53.5757 86.0751 52.6666 84.8335 52.2306 83.3849C51.361 80.5593 52.9352 76.0881 52.9352 76.0881C52.9352 76.0881 49.3015 78.4112 48.7596 81.9167C48.6587 82.8576 48.7518 83.8092 49.033 84.7128C48.4768 84.8085 47.911 84.8366 47.348 84.7965C46.269 84.6857 44.2021 84.0575 44.2021 84.0575C44.2021 84.0575 45.4339 86.1687 49.809 87.0949C50.3387 88.5878 50.8905 90.1078 51.0407 91.5292C51.2107 93.1649 50.4495 94.7317 49.676 95.8797H55.7953C56.0747 94.5232 56.1577 93.1335 56.0416 91.7534C55.9796 91.1017 55.8364 90.4603 55.6154 89.8442C55.8494 88.8588 56.214 87.5926 56.6378 86.9521C57.4335 85.7449 58.9165 84.5773 58.9165 84.5773C58.9165 84.5773 56.4801 85.0256 55.2853 86.1169Z" fill="#873B1C"/>
<path d="M38.8565 80.154C39.3492 83.6029 42.5049 84.7114 43.5666 83.8862C44.6851 83.0215 44.4978 80.76 43.0739 79.782C42.4975 79.3879 41.4062 79.1711 40.64 78.7671C39.5684 78.2054 38.8614 76.8086 38.8614 76.8086C38.7432 78.065 38.652 78.7744 38.8565 80.154Z" fill="#FA9525"/>
<path d="M63.814 80.0185C63.7771 83.5018 60.7889 85.0095 59.6261 84.3296C58.4067 83.6152 58.2983 81.3488 59.5892 80.1959C60.109 79.7303 61.1609 79.3731 61.8704 78.873C62.8558 78.1783 63.378 76.7002 63.378 76.7002C63.6564 77.9319 63.8387 78.6242 63.814 80.0185Z" fill="#47C4FB"/>
<path d="M42.4853 88.6479C44.1014 90.3723 46.2766 89.7416 46.5427 88.8696C46.8211 87.9556 45.8357 86.7806 44.6655 86.7978C44.1925 86.7978 43.5052 87.1131 42.9238 87.1895C42.1134 87.2979 41.1772 86.8003 41.1772 86.8003C41.5224 87.4757 41.9629 88.098 42.4853 88.6479V88.6479Z" fill="#4FAD4E"/>
<path d="M62.3236 88.2273C61.1781 90.2868 58.9166 90.2203 58.4437 89.4443C57.951 88.6264 58.6136 87.2444 59.7542 86.9808C60.2124 86.87 60.9539 86.9981 61.5353 86.9291C62.3483 86.8355 63.1341 86.1235 63.1341 86.1235C62.9646 86.8595 62.6917 87.5678 62.3236 88.2273Z" fill="#4FAD4E"/>
<path d="M58.0052 78.3238C57.3721 80.5927 55.1574 81.0533 54.5169 80.4079C53.8444 79.7255 54.1696 78.2277 55.2165 77.6981C55.6378 77.4862 56.3867 77.437 56.941 77.235C57.7071 76.9541 58.3057 76.0796 58.3057 76.0796C58.3141 76.8382 58.2128 77.5941 58.0052 78.3238Z" fill="#4FAD4E"/>
<path d="M44.0862 75.6883C44.7193 77.9572 46.934 78.4179 47.5745 77.7724C48.215 77.127 47.9194 75.5923 46.8749 75.0626C46.4536 74.8483 45.7047 74.799 45.1504 74.597C44.3843 74.3162 43.7857 73.4417 43.7857 73.4417C43.7771 74.2011 43.8783 74.9578 44.0862 75.6883Z" fill="#4FAD4E"/>
<path d="M48.6033 24.678H47.9515V22.115C47.9515 21.9051 47.9644 21.6482 47.9902 21.3444H47.9792C47.9387 21.5175 47.9028 21.6418 47.8714 21.7173L46.6894 24.678H46.2364L45.0516 21.7394C45.0185 21.6528 44.9835 21.5212 44.9467 21.3444H44.9356C44.9503 21.5028 44.9577 21.7615 44.9577 22.1205V24.678H44.3501V20.7175H45.2753L46.3165 23.355C46.3957 23.5576 46.4473 23.7086 46.4712 23.808H46.485C46.5531 23.5999 46.6084 23.4453 46.6507 23.344L47.7113 20.7175H48.6033V24.678Z" fill="#737373"/>
<path d="M49.6344 21.256C49.5294 21.256 49.4392 21.222 49.3637 21.1539C49.2901 21.0857 49.2533 20.9992 49.2533 20.8942C49.2533 20.7893 49.2901 20.7018 49.3637 20.6319C49.4392 20.5619 49.5294 20.5269 49.6344 20.5269C49.743 20.5269 49.8351 20.5619 49.9106 20.6319C49.9861 20.7018 50.0238 20.7893 50.0238 20.8942C50.0238 20.9937 49.9861 21.0793 49.9106 21.1511C49.8351 21.2211 49.743 21.256 49.6344 21.256ZM49.952 24.678H49.3113V21.8498H49.952V24.678Z" fill="#737373"/>
<path d="M52.6181 24.5482C52.3916 24.6789 52.1237 24.7443 51.8144 24.7443C51.3946 24.7443 51.0558 24.6135 50.798 24.3521C50.5402 24.0888 50.4114 23.7481 50.4114 23.3302C50.4114 22.8644 50.5494 22.4906 50.8256 22.2089C51.1037 21.9253 51.4747 21.7836 51.9387 21.7836C52.1964 21.7836 52.4238 21.8287 52.6208 21.9189V22.5154C52.4238 22.3681 52.2139 22.2945 51.9911 22.2945C51.7205 22.2945 51.4986 22.3866 51.3255 22.5707C51.1524 22.753 51.0659 22.9923 51.0659 23.2888C51.0659 23.5815 51.1469 23.8126 51.309 23.982C51.4728 24.1514 51.6919 24.2361 51.9663 24.2361C52.1964 24.2361 52.4137 24.1541 52.6181 23.9903V24.5482Z" fill="#737373"/>
<path d="M54.6986 22.4602C54.6213 22.3994 54.5099 22.3691 54.3644 22.3691C54.1748 22.3691 54.0164 22.4547 53.8894 22.6259C53.7624 22.7972 53.6988 23.0301 53.6988 23.3247V24.678H53.0581V21.8498H53.6988V22.4326H53.7099C53.7725 22.2337 53.8682 22.0791 53.9971 21.9686C54.1278 21.8563 54.2733 21.8001 54.4335 21.8001C54.5495 21.8001 54.6379 21.8176 54.6986 21.8526V22.4602Z" fill="#737373"/>
<path d="M56.1578 24.7443C55.7214 24.7443 55.3725 24.6126 55.111 24.3493C54.8514 24.0842 54.7216 23.7334 54.7216 23.297C54.7216 22.822 54.8569 22.451 55.1276 22.184C55.4001 21.917 55.7665 21.7836 56.2268 21.7836C56.6687 21.7836 57.013 21.9134 57.2597 22.173C57.5065 22.4326 57.6298 22.7925 57.6298 23.2529C57.6298 23.704 57.4963 24.0658 57.2294 24.3383C56.9642 24.6089 56.607 24.7443 56.1578 24.7443ZM56.1881 22.2945C55.9377 22.2945 55.7398 22.382 55.5943 22.5569C55.4489 22.7318 55.3762 22.973 55.3762 23.2805C55.3762 23.5769 55.4498 23.8107 55.5971 23.982C55.7444 24.1514 55.9414 24.2361 56.1881 24.2361C56.4404 24.2361 56.6337 24.1523 56.7681 23.9847C56.9044 23.8172 56.9725 23.5788 56.9725 23.2694C56.9725 22.9583 56.9044 22.718 56.7681 22.5486C56.6337 22.3792 56.4404 22.2945 56.1881 22.2945Z" fill="#737373"/>
<path d="M57.9096 24.5896V23.9958C58.149 24.1781 58.4132 24.2692 58.7023 24.2692C59.089 24.2692 59.2823 24.1551 59.2823 23.9267C59.2823 23.8623 59.2657 23.808 59.2326 23.7638C59.1994 23.7178 59.1543 23.6773 59.0972 23.6423C59.042 23.6073 58.9757 23.576 58.8984 23.5484C58.8229 23.5208 58.7382 23.4895 58.6443 23.4545C58.5283 23.4084 58.4234 23.3596 58.3295 23.3081C58.2374 23.2565 58.1601 23.1985 58.0975 23.1341C58.0367 23.0678 57.9907 22.9932 57.9594 22.9104C57.9281 22.8275 57.9124 22.7309 57.9124 22.6204C57.9124 22.4841 57.9446 22.3645 58.0091 22.2614C58.0735 22.1564 58.1601 22.0689 58.2687 21.999C58.3773 21.9272 58.5007 21.8738 58.6388 21.8388C58.7769 21.802 58.9196 21.7836 59.0669 21.7836C59.3283 21.7836 59.5622 21.8231 59.7684 21.9023V22.463C59.5695 22.3267 59.3412 22.2586 59.0834 22.2586C59.0024 22.2586 58.9288 22.2669 58.8625 22.2834C58.798 22.3 58.7428 22.323 58.6968 22.3525C58.6507 22.382 58.6148 22.4179 58.5891 22.4602C58.5633 22.5007 58.5504 22.5458 58.5504 22.5955C58.5504 22.6563 58.5633 22.7079 58.5891 22.7502C58.6148 22.7925 58.6526 22.8303 58.7023 22.8634C58.7539 22.8947 58.8146 22.9242 58.8846 22.9518C58.9564 22.9776 59.0383 23.0061 59.1304 23.0374C59.2519 23.0871 59.3605 23.1378 59.4563 23.1893C59.5539 23.2409 59.6367 23.2998 59.7048 23.3661C59.773 23.4305 59.8254 23.506 59.8623 23.5926C59.8991 23.6773 59.9175 23.7785 59.9175 23.8964C59.9175 24.04 59.8844 24.1652 59.8181 24.272C59.7518 24.3788 59.6634 24.4671 59.5529 24.5371C59.4425 24.6071 59.3145 24.6586 59.1691 24.6918C59.0254 24.7268 58.8735 24.7443 58.7133 24.7443C58.404 24.7443 58.1361 24.6927 57.9096 24.5896Z" fill="#737373"/>
<path d="M61.5838 24.7443C61.1474 24.7443 60.7985 24.6126 60.537 24.3493C60.2774 24.0842 60.1476 23.7334 60.1476 23.297C60.1476 22.822 60.283 22.451 60.5536 22.184C60.8261 21.917 61.1925 21.7836 61.6528 21.7836C62.0947 21.7836 62.439 21.9134 62.6858 22.173C62.9325 22.4326 63.0559 22.7925 63.0559 23.2529C63.0559 23.704 62.9224 24.0658 62.6554 24.3383C62.3902 24.6089 62.033 24.7443 61.5838 24.7443ZM61.6142 22.2945C61.3638 22.2945 61.1658 22.382 61.0204 22.5569C60.8749 22.7318 60.8022 22.973 60.8022 23.2805C60.8022 23.5769 60.8758 23.8107 61.0231 23.982C61.1704 24.1514 61.3674 24.2361 61.6142 24.2361C61.8664 24.2361 62.0597 24.1523 62.1942 23.9847C62.3304 23.8172 62.3985 23.5788 62.3985 23.2694C62.3985 22.9583 62.3304 22.718 62.1942 22.5486C62.0597 22.3792 61.8664 22.2945 61.6142 22.2945Z" fill="#737373"/>
<path d="M65.0176 21.013C64.9311 20.9633 64.8326 20.9384 64.7221 20.9384C64.411 20.9384 64.2554 21.1143 64.2554 21.4659V21.8498H64.9127V22.3525H64.2581V24.678H63.6174V22.3525H63.1341V21.8498H63.6174V21.3914C63.6174 21.0931 63.715 20.8583 63.9101 20.6871C64.1053 20.514 64.3493 20.4275 64.642 20.4275C64.8004 20.4275 64.9256 20.445 65.0176 20.48V21.013Z" fill="#737373"/>
<path d="M66.7668 24.6476C66.6416 24.7102 66.4768 24.7415 66.2724 24.7415C65.7237 24.7415 65.4494 24.4782 65.4494 23.9516V22.3525H64.9771V21.8498H65.4494V21.1953L66.0901 21.013V21.8498H66.7668V22.3525H66.0901V23.7666C66.0901 23.9341 66.1205 24.0538 66.1813 24.1256C66.242 24.1974 66.3433 24.2333 66.4851 24.2333C66.5937 24.2333 66.6876 24.202 66.7668 24.1394V24.6476Z" fill="#737373"/>
<path d="M42.3138 19.4194H39.1948V22.5384H42.3138V19.4194Z" fill="#7FBE00"/>
<path d="M38.9042 19.4194H35.7852V22.5384H38.9042V19.4194Z" fill="#F65212"/>
<path d="M42.3138 22.845H39.1948V25.964H42.3138V22.845Z" fill="#FFBB00"/>
<path d="M38.9042 22.845H35.7852V25.964H38.9042V22.845Z" fill="#00A4F3"/>
<path fill-rule="evenodd" clip-rule="evenodd" d="M94.3658 51.6322C94.3658 75.4322 75.0758 94.7222 51.2758 94.7222C27.4758 94.7222 8.1858 75.4322 8.1858 51.6322C8.1858 27.8322 27.4758 8.54225 51.2758 8.54225C75.0758 8.54225 94.3658 27.8322 94.3658 51.6322ZM51.2758 4.80225C77.1358 4.80225 98.1058 25.7722 98.1058 51.6322C98.1058 77.4922 77.1358 98.4623 51.2758 98.4623C25.4158 98.4623 4.4458 77.4922 4.4458 51.6322C4.4458 25.7722 25.4058 4.80225 51.2758 4.80225Z" fill="url(#paint0_linear_649_1109)"/>
<defs>
<linearGradient id="paint0_linear_649_1109" x1="51.2758" y1="4.80225" x2="51.2758" y2="98.4623" gradientUnits="userSpaceOnUse">
<stop stop-color="#FF9349"/>
<stop offset="0.171875" stop-color="#F57D37"/>
<stop offset="0.302083" stop-color="#EC6725"/>
<stop offset="0.442708" stop-color="#E25113"/>
<stop offset="0.557292" stop-color="#D83B01"/>
<stop offset="0.692708" stop-color="#BF3207"/>
<stop offset="0.796875" stop-color="#A6290C"/>
<stop offset="0.916667" stop-color="#8C2011"/>
<stop offset="1" stop-color="#731717"/>
</linearGradient>
</defs>
</svg>
