<svg width="103" height="103" fill="none" xmlns="http://www.w3.org/2000/svg"><path d="M51.526 97.815c-25.85 0-46.81-20.95-46.81-46.81 0-25.86 20.96-46.81 46.81-46.81s46.81 20.96 46.81 46.81-20.96 46.81-46.81 46.81Z" fill="url(#a)"/><path fill-rule="evenodd" clip-rule="evenodd" d="M97.426 51.005c0 25.35-20.55 45.9-45.9 45.9-25.35 0-45.9-20.55-45.9-45.9 0-25.35 20.55-45.9 45.9-45.9 25.35 0 45.9 20.55 45.9 45.9Zm-45.9-49.64c27.42 0 49.64 22.22 49.64 49.64s-22.23 49.64-49.64 49.64c-27.42 0-49.64-22.23-49.64-49.64 0-27.42 22.22-49.64 49.64-49.64Z" fill="#F2F1F0"/><path opacity=".15" d="M49.895 28.455h-7.48l-6.06 16.68-5.5-16.68h-8.17v23.42h4.82v-17.77l6.79 17.77h3.91l6.68-18.48v18.48h5.01v-23.42ZM60.666 32.755h2.12v-4.24h-9.81v4.11h2.3v14.88h-2.3v4.43h9.81v-4.36h-2.12v-14.82ZM71.706 42.315h7.57v-4.43h-7.7v-5.2h8.79v-4.36h-14.31v23.35h14.31v-4.36h-8.66v-5Z" fill="#1F1D20"/><path d="M49.895 27.075h-7.48l-6.06 16.68-5.5-16.68h-8.17v23.42h4.82v-17.77l6.79 17.77h3.91l6.68-18.48v18.48h5.01v-23.42ZM60.666 31.375h2.12v-4.23h-9.81v4.1h2.3v14.89h-2.3v4.42h9.81v-4.36h-2.12v-14.82ZM71.706 40.936h7.57v-4.43h-7.7v-5.19h8.79v-4.37h-14.31v23.36h14.31v-4.37h-8.66v-5Z" fill="#454545"/><path d="M58.229 94.263s-10.792 3.713-9.396.417c.834-1.96 1.504-4.117 1.504-5.98 0-4.979-2.585-6.787-2.585-11.863 0-3.282 3.269-7.802 6.264-10.166.356-.278.835.097.67.514-.642 1.67-1.285 4.172-1.696 7.663-.697 5.855 4.815 8.233 6.388 15.09.328 1.418.396 2.795.314 4.088-.246 3.839-7.741.126-7.741.126l6.278.11Z" fill="#80411C"/><path d="M33.95 67.88s-.205 6.217 1.93 8.54c2.133 2.322 4.759 2.336 6.017 1.14.944-.89 1.122-3.06-.136-4.437-1.3-1.418-5.759-1.432-7.81-5.243Z" fill="#F93"/><path d="M68.87 67.519s.917 6.05-.861 8.748c-1.778 2.698-4.309 3.226-5.65 2.308-.998-.681-1.435-2.781-.382-4.367 1.08-1.654 5.361-2.558 6.893-6.689Z" fill="#19C6FF"/><path d="M61.28 67.074s-.288 3.602-1.67 4.798c-1.381 1.196-2.9 1.016-3.542.25-.479-.57-.451-1.85.37-2.544.834-.738 3.405-.446 4.841-2.504ZM68.691 80.981s-.984 3.463-2.571 4.367c-1.587.89-3.036.418-3.529-.472-.355-.668-.082-1.892.862-2.42.971-.557 3.433.264 5.238-1.475ZM42.117 62.317s-.985 2.963-.301 4.395c.697 1.433 1.956 1.822 2.735 1.432.575-.291.985-1.307.575-2.155-.424-.862-2.572-1.53-3.01-3.672ZM38.123 82.928s2.038 2.823 3.789 3.102c1.75.278 2.9-.654 3.05-1.627.11-.724-.561-1.753-1.587-1.92-1.067-.18-3.05 1.405-5.252.445Z" fill="#13B04C"/><path d="M61.02 53.097s-8.139.473-10.929 3.63c-2.776 3.157-2.475 6.703-.766 8.26 1.272 1.155 4.145 1.155 5.786-.708 1.696-1.933 1.176-7.97 5.909-11.182Z" fill="#CC52CC"/><path d="M57.818 88.019c0-3.116 3.46-7.566 5.321-8.136 1.86-.57-4.938-1.03-7.892 4.422M49.23 79.382c-2.147 1.307-5.033.459-7.482-.584-1.463-.626 4.842 4.13 9.834 3.963" fill="#80411C"/><path fill-rule="evenodd" clip-rule="evenodd" d="M94.615 51.005c0 23.8-19.29 43.09-43.09 43.09-23.8 0-43.09-19.29-43.09-43.09 0-23.8 19.29-43.09 43.09-43.09 23.8 0 43.09 19.29 43.09 43.09Zm-43.09-46.83c25.86 0 46.83 20.97 46.83 46.83s-20.97 46.83-46.83 46.83-46.83-20.97-46.83-46.83 20.96-46.83 46.83-46.83Z" fill="url(#b)"/><path d="M51.526 97.815c-25.85 0-46.81-20.95-46.81-46.81 0-25.86 20.96-46.81 46.81-46.81s46.81 20.96 46.81 46.81-20.96 46.81-46.81 46.81Z" fill="url(#c)"/><path fill-rule="evenodd" clip-rule="evenodd" d="M97.426 51.005c0 25.35-20.55 45.9-45.9 45.9-25.35 0-45.9-20.55-45.9-45.9 0-25.35 20.55-45.9 45.9-45.9 25.35 0 45.9 20.55 45.9 45.9Zm-45.9-49.64c27.42 0 49.64 22.22 49.64 49.64s-22.23 49.64-49.64 49.64c-27.42 0-49.64-22.23-49.64-49.64 0-27.42 22.22-49.64 49.64-49.64Z" fill="#F2F1F0"/><path opacity=".15" d="M49.895 28.455h-7.48l-6.06 16.68-5.5-16.68h-8.17v23.42h4.82v-17.77l6.79 17.77h3.91l6.68-18.48v18.48h5.01v-23.42ZM60.666 32.755h2.12v-4.24h-9.81v4.11h2.3v14.88h-2.3v4.43h9.81v-4.36h-2.12v-14.82ZM71.706 42.315h7.57v-4.43h-7.7v-5.2h8.79v-4.36h-14.31v23.35h14.31v-4.36h-8.66v-5Z" fill="#1F1D20"/><path d="M49.895 27.075h-7.48l-6.06 16.68-5.5-16.68h-8.17v23.42h4.82v-17.77l6.79 17.77h3.91l6.68-18.48v18.48h5.01v-23.42ZM60.666 31.375h2.12v-4.23h-9.81v4.1h2.3v14.89h-2.3v4.42h9.81v-4.36h-2.12v-14.82ZM71.706 40.936h7.57v-4.43h-7.7v-5.19h8.79v-4.37h-14.31v23.36h14.31v-4.37h-8.66v-5Z" fill="#454545"/><path d="M58.229 94.263s-10.792 3.713-9.396.417c.834-1.96 1.504-4.117 1.504-5.98 0-4.979-2.585-6.787-2.585-11.863 0-3.282 3.269-7.802 6.264-10.166.356-.278.835.097.67.514-.642 1.67-1.285 4.172-1.696 7.663-.697 5.855 4.815 8.233 6.388 15.09.328 1.418.396 2.795.314 4.088-.246 3.839-7.741.126-7.741.126l6.278.11Z" fill="#80411C"/><path d="M33.95 67.88s-.205 6.217 1.93 8.54c2.133 2.322 4.759 2.336 6.017 1.14.944-.89 1.122-3.06-.136-4.437-1.3-1.418-5.759-1.432-7.81-5.243Z" fill="#F93"/><path d="M68.87 67.519s.917 6.05-.861 8.748c-1.778 2.698-4.309 3.226-5.65 2.308-.998-.681-1.435-2.781-.382-4.367 1.08-1.654 5.361-2.558 6.893-6.689Z" fill="#19C6FF"/><path d="M61.28 67.074s-.288 3.602-1.67 4.798c-1.381 1.196-2.9 1.016-3.542.25-.479-.57-.451-1.85.37-2.544.834-.738 3.405-.446 4.841-2.504ZM68.691 80.981s-.984 3.463-2.571 4.367c-1.587.89-3.036.418-3.529-.472-.355-.668-.082-1.892.862-2.42.971-.557 3.433.264 5.238-1.475ZM42.117 62.317s-.985 2.963-.301 4.395c.697 1.433 1.956 1.822 2.735 1.432.575-.291.985-1.307.575-2.155-.424-.862-2.572-1.53-3.01-3.672ZM38.123 82.928s2.038 2.823 3.789 3.102c1.75.278 2.9-.654 3.05-1.627.11-.724-.561-1.753-1.587-1.92-1.067-.18-3.05 1.405-5.252.445Z" fill="#13B04C"/><path d="M61.02 53.097s-8.139.473-10.929 3.63c-2.776 3.157-2.475 6.703-.766 8.26 1.272 1.155 4.145 1.155 5.786-.708 1.696-1.933 1.176-7.97 5.909-11.182Z" fill="#CC52CC"/><path d="M57.818 88.019c0-3.116 3.46-7.566 5.321-8.136 1.86-.57-4.938-1.03-7.892 4.422M49.23 79.382c-2.147 1.307-5.033.459-7.482-.584-1.463-.626 4.842 4.13 9.834 3.963" fill="#80411C"/><path fill-rule="evenodd" clip-rule="evenodd" d="M94.615 51.005c0 23.8-19.29 43.09-43.09 43.09-23.8 0-43.09-19.29-43.09-43.09 0-23.8 19.29-43.09 43.09-43.09 23.8 0 43.09 19.29 43.09 43.09Zm-43.09-46.83c25.86 0 46.83 20.97 46.83 46.83s-20.97 46.83-46.83 46.83-46.83-20.97-46.83-46.83 20.96-46.83 46.83-46.83Z" fill="url(#d)"/><defs><linearGradient id="a" x1="51.526" y1="4.195" x2="51.526" y2="97.815" gradientUnits="userSpaceOnUse"><stop offset=".276" stop-color="#fff"/><stop offset=".698" stop-color="#FFF6DD"/><stop offset="1" stop-color="#FFEFC2"/></linearGradient><linearGradient id="b" x1="2.956" y1="-20.617" x2="98.483" y2="120.264" gradientUnits="userSpaceOnUse"><stop stop-color="#007ED8"/><stop offset=".707" stop-color="#002D4C"/></linearGradient><linearGradient id="c" x1="51.526" y1="4.195" x2="51.526" y2="97.815" gradientUnits="userSpaceOnUse"><stop offset=".276" stop-color="#fff"/><stop offset=".698" stop-color="#FFF6DD"/><stop offset="1" stop-color="#FFEFC2"/></linearGradient><linearGradient id="d" x1="2.956" y1="-20.617" x2="98.483" y2="120.264" gradientUnits="userSpaceOnUse"><stop stop-color="#007ED8"/><stop offset=".707" stop-color="#002D4C"/></linearGradient></defs></svg>